<svg xmlns="http://www.w3.org/2000/svg" width="50" height="68" fill="none"><path fill="#E7742E" d="M2.463 68v-4.896l27.936-27.36c2.56-2.496 4.48-4.672 5.76-6.528 1.28-1.92 2.144-3.712 2.592-5.376.448-1.664.672-3.232.672-4.704 0-3.904-1.344-6.976-4.032-9.216-2.624-2.24-6.528-3.36-11.712-3.36-3.968 0-7.488.608-10.56 1.824-3.008 1.216-5.6 3.104-7.776 5.664L.447 9.824C3.07 6.752 6.43 4.384 10.527 2.72 14.623 1.056 19.199.224 24.255.224c4.544 0 8.48.736 11.808 2.208 3.328 1.408 5.888 3.488 7.68 6.24 1.856 2.752 2.784 5.984 2.784 9.696 0 2.176-.32 4.32-.96 6.432-.576 2.112-1.664 4.352-3.264 6.72-1.536 2.304-3.808 4.928-6.816 7.872L9.855 64.544l-1.92-2.688h41.664V68H2.463Z"/></svg>