<svg xmlns="http://www.w3.org/2000/svg" width="50" height="69" fill="none"><path fill="#E7742E" d="M24.962 68.576c-4.864 0-9.472-.768-13.824-2.304C6.85 64.672 3.394 62.56.77 59.936l3.36-5.472c2.176 2.24 5.088 4.096 8.736 5.568 3.712 1.472 7.744 2.208 12.096 2.208 5.568 0 9.824-1.216 12.768-3.648 3.008-2.432 4.512-5.696 4.512-9.792s-1.472-7.36-4.416-9.792c-2.88-2.432-7.456-3.648-13.728-3.648h-4.8v-5.088L40.034 4.256l.96 2.688H3.554V.8h43.2v4.896L26.018 31.712l-3.36-2.208h2.592c8.064 0 14.08 1.792 18.048 5.376 4.032 3.584 6.048 8.192 6.048 13.824 0 3.776-.896 7.168-2.688 10.176-1.792 3.008-4.512 5.376-8.16 7.104-3.584 1.728-8.096 2.592-13.536 2.592Z"/></svg>