<svg width="1080" height="666" viewBox="0 0 1080 666" fill="none" xmlns="http://www.w3.org/2000/svg">
<path d="M919.44 87.2948H869.26C868.991 81.213 863.98 76.3611 857.82 76.3611C854.571 76.3611 851.644 77.7158 849.558 79.883C846.912 74.9876 841.728 71.6599 835.764 71.6599C835.02 71.6599 834.294 71.7295 833.577 71.8298C831.772 58.5878 820.405 48.3806 806.643 48.3806C804.625 48.3806 802.66 48.6068 800.767 49.0229C796.641 41.5061 788.645 36.407 779.451 36.407C768.851 36.407 759.861 43.1953 756.544 52.6451C754.18 51.6607 751.589 51.113 748.868 51.113C737.847 51.113 728.912 60.0303 728.912 71.0306C728.912 72.178 729.031 73.296 729.218 74.3904C728.776 74.3557 728.332 74.3231 727.881 74.3231C719.941 74.3231 713.311 79.873 711.641 87.2948H650.691" fill="white"/>
<path d="M919.44 87.2948H869.26C868.991 81.213 863.98 76.3611 857.82 76.3611C854.571 76.3611 851.644 77.7158 849.558 79.883C846.912 74.9876 841.728 71.6599 835.764 71.6599C835.02 71.6599 834.294 71.7295 833.577 71.8298C831.772 58.5878 820.405 48.3806 806.643 48.3806C804.625 48.3806 802.66 48.6068 800.767 49.0229C796.641 41.5061 788.645 36.407 779.451 36.407C768.851 36.407 759.861 43.1953 756.544 52.6451C754.18 51.6607 751.589 51.113 748.868 51.113C737.847 51.113 728.912 60.0303 728.912 71.0306C728.912 72.178 729.031 73.296 729.218 74.3904C728.776 74.3557 728.332 74.3231 727.881 74.3231C719.941 74.3231 713.311 79.873 711.641 87.2948H650.691" stroke="#0B1427" stroke-width="1.2" stroke-miterlimit="10"/>
<path d="M700.293 99.01H770.967" stroke="#0B1427" stroke-width="1.2" stroke-miterlimit="10"/>
<path d="M750.674 108.126H760.644" stroke="#0B1427" stroke-width="1.2" stroke-miterlimit="10"/>
<path d="M814.762 108.126H887.396" stroke="#0B1427" stroke-width="1.2" stroke-miterlimit="10"/>
<path d="M342.111 93.0176H317.384C315.378 91.2457 312.765 90.2238 309.998 90.2238C309.996 90.2238 309.84 90.234 309.763 90.2357L307.363 90.2855L307.736 87.9186C307.907 86.8384 307.993 85.7417 307.993 84.6585C307.993 73.2036 298.656 63.8838 287.179 63.8838C279.174 63.8838 271.786 68.5549 268.357 75.7834L267.442 77.7141L265.569 76.6809C263.104 75.3204 260.306 74.6014 257.477 74.6014C249.183 74.6014 242.055 80.7739 240.897 88.9595L240.536 91.5135L238.145 90.5346C236.829 89.9956 235.444 89.7225 234.028 89.7225C231.074 89.7225 228.274 90.9533 226.258 93.0176H156.209" fill="white"/>
<path d="M342.111 93.0176H317.384C315.378 91.2457 312.765 90.2238 309.998 90.2238C309.996 90.2238 309.84 90.234 309.763 90.2357L307.363 90.2855L307.736 87.9186C307.907 86.8384 307.993 85.7417 307.993 84.6585C307.993 73.2036 298.656 63.8838 287.179 63.8838C279.174 63.8838 271.786 68.5549 268.357 75.7834L267.442 77.7141L265.569 76.6809C263.104 75.3204 260.306 74.6014 257.477 74.6014C249.183 74.6014 242.055 80.7739 240.897 88.9595L240.536 91.5135L238.145 90.5346C236.829 89.9956 235.444 89.7225 234.028 89.7225C231.074 89.7225 228.274 90.9533 226.258 93.0176H156.209" stroke="#0B1427" stroke-width="1.2" stroke-miterlimit="10"/>
<path d="M195.182 98.8148H256.377" stroke="#0B1427" stroke-width="1.2" stroke-miterlimit="10"/>
<path d="M288.363 106.57H314.56" stroke="#0B1427" stroke-width="1.2" stroke-miterlimit="10"/>
<path d="M238.408 112.277H291.531" stroke="#0B1427" stroke-width="1.2" stroke-miterlimit="10"/>
<path d="M479.076 41.6497H453.143C451.545 38.7419 448.451 36.7693 444.894 36.7675C446.208 34.6967 446.971 32.2435 446.971 29.6112C446.971 22.21 440.96 16.2098 433.544 16.2098C429.002 16.2098 424.989 18.4637 422.56 21.9096C422.151 21.6387 421.73 21.3809 421.291 21.1429C413.363 16.8456 403.446 19.7772 399.14 27.6904C397.536 30.6391 396.939 33.8631 397.229 36.9703H397.157C393.716 36.9703 390.721 38.8582 389.141 41.6497H316.333" fill="white"/>
<path d="M479.076 41.6497H453.143C451.545 38.7419 448.451 36.7693 444.894 36.7675C446.208 34.6967 446.971 32.2435 446.971 29.6112C446.971 22.21 440.96 16.2098 433.544 16.2098C429.002 16.2098 424.989 18.4637 422.56 21.9096C422.151 21.6387 421.73 21.3809 421.291 21.1429C413.363 16.8456 403.446 19.7772 399.14 27.6904C397.536 30.6391 396.939 33.8631 397.229 36.9703H397.157C393.716 36.9703 390.721 38.8582 389.141 41.6497H316.333" stroke="#0B1427" stroke-width="1.2" stroke-miterlimit="10"/>
<path d="M362.122 53.5783H404.928" stroke="#0B1427" stroke-width="1.2" stroke-miterlimit="10"/>
<path d="M430.671 53.5783H438.822" stroke="#0B1427" stroke-width="1.2" stroke-miterlimit="10"/>
<path d="M844.486 381.267C870.476 381.267 891.545 360.238 891.545 334.297C891.545 308.356 870.476 287.327 844.486 287.327C818.497 287.327 797.428 308.356 797.428 334.297C797.428 360.238 818.497 381.267 844.486 381.267Z" fill="#E7742E"/>
<path d="M884.101 411.163C898.805 405.192 905.875 388.453 899.892 373.777C893.909 359.1 877.139 352.044 862.435 358.015C847.731 363.987 840.661 380.726 846.644 395.402C852.627 410.078 869.397 417.135 884.101 411.163Z" fill="#E7742E"/>
<path d="M795.467 405.382C814.663 405.382 830.224 389.85 830.224 370.691C830.224 351.531 814.663 336 795.467 336C776.272 336 760.711 351.531 760.711 370.691C760.711 389.85 776.272 405.382 795.467 405.382Z" fill="#E7742E"/>
<path d="M286.748 438.201C300.61 438.201 311.846 426.986 311.846 413.151C311.846 399.316 300.61 388.1 286.748 388.1C272.887 388.1 261.65 399.316 261.65 413.151C261.65 426.986 272.887 438.201 286.748 438.201Z" fill="#E7742E"/>
<path d="M270.308 453.329C278.67 452.006 284.375 444.168 283.05 435.822C281.725 427.475 273.872 421.781 265.51 423.104C257.148 424.426 251.443 432.264 252.768 440.611C254.093 448.957 261.946 454.651 270.308 453.329Z" fill="#E7742E"/>
<path d="M309.386 449.286C319.624 449.286 327.923 441.002 327.923 430.784C327.923 420.566 319.624 412.282 309.386 412.282C299.149 412.282 290.85 420.566 290.85 430.784C290.85 441.002 299.149 449.286 309.386 449.286Z" fill="#E7742E"/>
<path d="M212.808 352.044C255.869 345.069 285.111 304.572 278.123 261.592C271.134 218.612 230.561 189.425 187.5 196.4C144.439 203.375 115.197 243.872 122.185 286.852C129.174 329.832 169.747 359.02 212.808 352.044Z" fill="#E7742E"/>
<path d="M177.154 354.561C189.597 346.154 192.856 329.27 184.432 316.851C176.009 304.432 159.093 301.18 146.651 309.587C134.208 317.995 130.95 334.878 139.373 347.297C147.796 359.717 164.712 362.969 177.154 354.561Z" fill="#E7742E"/>
<path d="M249.911 368.644C281.737 363.627 303.463 333.808 298.437 302.042C293.41 270.275 263.535 248.59 231.709 253.607C199.882 258.624 178.157 288.443 183.183 320.209C188.209 351.976 218.084 373.661 249.911 368.644Z" fill="#E7742E"/>
<path d="M227.298 489.732L220.415 405.773L247.828 376.071C248.34 376.084 248.838 376.148 249.353 376.148C283.98 376.148 312.05 348.131 312.05 313.57C312.05 289.155 298.011 268.06 277.579 257.747C269.651 222.941 238.522 196.937 201.251 196.937C157.985 196.937 122.911 231.945 122.911 275.129C122.911 294.114 129.699 311.51 140.973 325.055C139.864 328.154 139.151 331.443 139.151 334.922C139.151 351.205 152.375 364.405 168.688 364.405C170.332 364.405 171.916 364.18 173.486 363.922L205.397 400.392L200.391 489.732H103.377H227.298ZM205.397 378.988L176.981 363.081C183.074 361.292 188.316 357.651 192.079 352.739C194.984 353.078 197.926 353.29 200.92 353.303C202.959 355.777 205.23 358.043 207.621 360.178L205.397 378.988ZM220.415 388.64L217.753 367.555C225.081 371.838 233.333 374.699 242.168 375.707L220.415 388.64Z" stroke="#0B1427" stroke-width="1.2" stroke-miterlimit="10"/>
<path d="M299.778 489.732L297.324 459.798L307.097 449.209C307.28 449.213 307.457 449.236 307.641 449.236C319.986 449.236 329.994 439.248 329.994 426.926C329.994 418.221 324.989 410.7 317.704 407.023C314.878 394.614 303.779 385.343 290.491 385.343C275.066 385.343 262.561 397.824 262.561 413.22C262.561 416.545 263.174 419.719 264.244 422.675C259.632 425.395 256.529 430.394 256.529 436.129C256.529 444.762 263.541 451.761 272.19 451.761C276.337 451.761 280.097 450.14 282.899 447.514L291.969 457.88L290.185 489.732H227.297H299.778ZM291.969 450.249L284.344 445.98C285.564 444.482 286.512 442.756 287.112 440.874C288.184 441.003 289.268 441.087 290.373 441.091C291.1 441.973 291.91 442.782 292.762 443.543L291.969 450.249ZM297.324 453.69L296.375 446.173C298.987 447.7 301.929 448.72 305.079 449.079L297.324 453.69Z" stroke="#0B1427" stroke-width="1.2" stroke-miterlimit="10"/>
<path d="M330.959 489.732H299.779H330.959ZM976.378 489.732H852.761L847.765 428.789L863.33 411.926C867.999 414.671 873.373 416.354 879.185 416.354C896.538 416.354 910.604 402.313 910.604 384.992C910.604 370.869 901.189 359.067 888.327 355.14C890.964 349.05 892.44 342.344 892.44 335.289C892.44 307.62 869.968 285.189 842.246 285.189C815.196 285.189 793.206 306.56 792.152 333.301C775.293 336.799 762.62 351.7 762.62 369.565C762.62 390.028 779.24 406.617 799.743 406.617C806.01 406.617 811.824 404.92 817.002 402.183L836.864 424.883L833.231 489.732H750.763H976.378ZM836.864 409.347L820.573 400.227C826.268 396.365 830.785 390.939 833.615 384.598C835.61 384.944 837.644 385.158 839.712 385.262L836.864 409.347ZM847.765 416.354L843.847 385.309C845.166 385.267 846.482 385.213 847.773 385.071C847.798 394.918 852.454 403.592 859.587 409.325L847.765 416.354Z" stroke="#0B1427" stroke-width="1.2" stroke-miterlimit="10"/>
<path d="M714.626 502.029H365.126C361.871 502.029 359.232 499.395 359.232 496.147V491.113C359.232 475.876 371.608 463.524 386.874 463.524H692.878C708.144 463.524 720.52 475.876 720.52 491.113V496.147C720.52 499.395 717.881 502.029 714.626 502.029Z" stroke="#0B1427" stroke-width="1.2" stroke-miterlimit="10"/>
<path d="M714.626 502.029H365.126C361.871 502.029 359.232 499.395 359.232 496.147V489.483H720.52V496.147C720.52 499.395 717.881 502.029 714.626 502.029Z" stroke="#0B1427" stroke-width="1.2" stroke-miterlimit="10" stroke-linejoin="round"/>
<path d="M378.757 582.21H369.873C367.251 582.21 365.125 580.088 365.125 577.471V502.029H383.505V577.471C383.505 580.088 381.379 582.21 378.757 582.21Z" stroke="#0B1427" stroke-width="1.2" stroke-miterlimit="10" stroke-linejoin="round"/>
<path d="M405.597 552.682H396.713C394.09 552.682 391.965 550.56 391.965 547.943V502.029H410.345V547.943C410.345 550.56 408.219 552.682 405.597 552.682Z" stroke="#0B1427" stroke-width="1.2" stroke-miterlimit="10" stroke-linejoin="round"/>
<path d="M700.994 582.21H709.878C712.501 582.21 714.626 580.088 714.626 577.471V502.029H696.246V577.471C696.246 580.088 698.372 582.21 700.994 582.21Z" fill="#DEDEDE" stroke="#0B1427" stroke-width="1.2" stroke-miterlimit="10" stroke-linejoin="round"/>
<path d="M674.156 552.682H683.041C685.663 552.682 687.788 550.56 687.788 547.943V502.029H669.408V547.943C669.408 550.56 671.534 552.682 674.156 552.682Z" stroke="#0B1427" stroke-width="1.2" stroke-miterlimit="10" stroke-linejoin="round"/>
<path d="M647.289 569.843H690.35" stroke="#0B1427" stroke-width="1.2" stroke-miterlimit="10"/>
<path d="M702.921 499.392H695.523C685.231 499.392 676.724 507.4 676.125 517.652L673.082 569.66C672.398 581.363 681.724 591.228 693.473 591.228H711.874L702.921 499.392ZM683.174 580.541C680.471 577.682 679.109 573.947 679.339 570.024L682.382 518.016C682.786 511.08 688.559 505.646 695.523 505.646H697.233L704.968 584.974H693.473C689.534 584.974 685.876 583.399 683.174 580.541Z" fill="#E7742E" stroke="#0B1427" stroke-width="1.2" stroke-miterlimit="10" stroke-linejoin="round"/>
<path d="M688.658 495.533L690.086 500.728H695.636L693.964 494.678C693.255 492.114 695.188 489.58 697.854 489.58C700.52 489.58 702.454 492.114 701.745 494.678L700.072 500.728H704.852L706.399 495.903C708.301 489.968 703.864 483.903 697.619 483.903H697.548C691.465 483.903 687.05 489.679 688.658 495.533Z" fill="#E7742E" stroke="#0B1427" stroke-width="1.2" stroke-miterlimit="10" stroke-linejoin="round"/>
<path d="M722.041 596.374H791.876" stroke="#0B1427" stroke-width="1.2" stroke-miterlimit="10"/>
<path d="M763.092 584.518H780.103" stroke="#0B1427" stroke-width="1.2" stroke-miterlimit="10"/>
<path d="M655.613 580.36H669.043" stroke="#0B1427" stroke-width="1.2" stroke-miterlimit="10"/>
<path d="M688.021 512.349L694.925 578.53C695.677 585.746 701.773 591.228 709.043 591.228H733.361C747.996 591.228 759.707 579.105 759.168 564.511V564.511C758.706 551.979 753.692 540.042 745.06 530.926L731.285 516.377C723.462 508.114 712.572 503.431 701.179 503.431H696.076C691.272 503.431 687.523 507.581 688.021 512.349Z" fill="#E7742E" stroke="#0B1427" stroke-width="1.2" stroke-miterlimit="10" stroke-linejoin="round"/>
<path d="M701.694 548.522L698.352 548.571C693.872 548.607 690.331 552.372 690.579 556.836L691.719 577.38C691.958 581.693 695.313 585.164 699.211 585.133L704.763 585.066C708.661 585.034 711.627 581.512 711.388 577.199L710.241 556.525C709.99 552.008 706.227 548.485 701.694 548.522Z" fill="#E7742E" stroke="#0B1427" stroke-width="1.2" stroke-miterlimit="10" stroke-linejoin="round"/>
<path d="M707.828 568.88L691.667 569.011C688.453 569.037 685.689 566.176 685.492 562.621L685.063 554.892C684.86 551.239 687.758 548.158 691.424 548.129L708.308 547.992C710.647 547.973 712.589 549.792 712.719 552.123L713.289 562.396C713.486 565.951 711.041 568.854 707.828 568.88Z" fill="#E7742E" stroke="#0B1427" stroke-width="1.2" stroke-miterlimit="10" stroke-linejoin="round"/>
<path d="M691.998 562.574L701.414 562.498" stroke="#0B1427" stroke-width="1.2" stroke-miterlimit="10"/>
<path d="M755.122 536.37C754.883 535.971 754.628 535.554 754.354 535.118C751.651 530.811 748.485 526.809 744.987 523.114L736.244 513.88C727.488 504.633 715.301 499.392 702.551 499.392H695.098C690.293 499.392 686.545 503.542 687.042 508.31L687.628 511.713L688.02 512.349C695.495 512.349 702.286 516.693 705.407 523.471L710.706 534.978C713.039 540.044 718.114 543.29 723.701 543.29H751.183C754.745 543.29 756.95 539.421 755.122 536.37Z" fill="#E7742E" stroke="#0B1427" stroke-width="1.2" stroke-miterlimit="10" stroke-linejoin="round"/>
<path d="M744.452 538.274H735.739C734.684 538.274 733.828 537.42 733.828 536.367C733.828 535.313 734.684 534.46 735.739 534.46H744.452C745.507 534.46 746.363 535.313 746.363 536.367C746.363 537.42 745.507 538.274 744.452 538.274Z" fill="#E7742E" stroke="#0B1427" stroke-width="1.2" stroke-miterlimit="10"/>
<path d="M709.043 591.228C719.437 591.228 726.949 581.312 724.114 571.334L717.614 548.458" stroke="#0B1427" stroke-width="1.2" stroke-miterlimit="10" stroke-linecap="round" stroke-linejoin="round"/>
<path d="M733.348 558.501H758.451" stroke="#0B1427" stroke-width="1.2" stroke-miterlimit="10" stroke-linecap="round" stroke-linejoin="round"/>
<path d="M750.732 584.518H736.512" stroke="#0B1427" stroke-width="1.2" stroke-miterlimit="10" stroke-linecap="round" stroke-linejoin="round"/>
<path d="M606.692 386.513L612.071 447.014C612.723 454.353 605.906 460.129 598.755 458.298L568.044 450.436V436.916L592.815 436.9L571.625 386.513H606.692Z" fill="white" stroke="#0B1427" stroke-width="1.2" stroke-miterlimit="10"/>
<path d="M599.872 436.543L592.817 436.9" stroke="#0B1427" stroke-width="1.2" stroke-miterlimit="10" stroke-linecap="round"/>
<path d="M474.448 386.513L469.07 447.014C468.417 454.353 475.234 460.129 482.386 458.298L513.096 450.436V436.916L488.326 436.9L509.515 386.513H474.448Z" fill="white" stroke="#0B1427" stroke-width="1.2" stroke-miterlimit="10"/>
<path d="M481.272 436.543L488.327 436.9" stroke="#0B1427" stroke-width="1.2" stroke-miterlimit="10" stroke-linecap="round"/>
<path d="M469.974 407.061H611.172L609.166 392.79C605.396 365.973 582.404 346.024 555.265 346.024H525.936C498.875 346.024 475.924 365.861 472.064 392.587L469.974 407.061Z" fill="white" stroke="#0B1427" stroke-width="1.2" stroke-miterlimit="10"/>
<path d="M540.571 375.225C532.321 375.225 525.632 368.551 525.632 360.318V349.985H555.511V360.318C555.511 368.551 548.822 375.225 540.571 375.225Z" fill="white" stroke="#0B1427" stroke-width="1.2" stroke-miterlimit="10"/>
<path d="M564.365 335.464H516.777C514.096 335.464 511.766 333.625 511.15 331.02L510.103 326.597C509.346 323.398 511.778 320.332 515.071 320.332H566.071C569.364 320.332 571.796 323.398 571.039 326.597L569.992 331.02C569.376 333.625 567.046 335.464 564.365 335.464Z" fill="white" stroke="#0B1427" stroke-width="1.2" stroke-miterlimit="10"/>
<path d="M559.359 355.722L548.497 363.488C543.585 366.283 537.559 366.283 532.646 363.488L522.412 355.668C520.617 354.297 519.434 352.277 519.118 350.043L516.929 334.595L516.679 301.222H565.36L564.659 335.607L562.893 349.791C562.596 352.173 561.315 354.324 559.359 355.722Z" fill="white" stroke="#0B1427" stroke-width="1.2" stroke-miterlimit="10"/>
<path d="M560.044 346.142L544.887 342.61C544.196 342.449 543.495 342.672 542.949 343.126C542.376 343.603 541.59 343.933 540.571 343.933C539.579 343.933 538.811 343.62 538.245 343.164C537.706 342.73 537.018 342.528 536.348 342.702L523.112 346.142L516.929 334.595L519.117 350.043C519.434 352.277 520.617 354.297 522.411 355.668L532.645 363.488C537.558 366.283 543.584 366.283 548.496 363.488L559.358 355.722C561.314 354.324 562.595 352.173 562.892 349.791L564.658 335.607L560.044 346.142Z" fill="#E7742E" stroke="#0B1427" stroke-width="1.2" stroke-miterlimit="10"/>
<path d="M553.124 281.182L554.915 275.761L520.427 281.122L510.652 301.159L516.679 333.225V311.943L525.633 303.009L540.572 309.561L555.512 303.009L564.659 311.943V335.607L570.21 301.607L566.879 290.397L559.822 286.184L561.314 281.182H553.124Z" fill="#E7742E" stroke="#0B1427" stroke-width="1.2" stroke-miterlimit="10"/>
<path d="M546.661 323.382C549.742 321.628 553.522 321.628 556.603 323.382" stroke="#0B1427" stroke-width="1.2" stroke-miterlimit="10"/>
<path d="M534.478 314.011L525.589 314.601" stroke="#0B1427" stroke-width="1.2" stroke-miterlimit="10" stroke-linecap="square"/>
<path d="M546.788 315.278L556.119 313.49" stroke="#0B1427" stroke-width="1.2" stroke-miterlimit="10" stroke-linecap="square"/>
<path d="M538.78 337.08V327.55" stroke="#0B1427" stroke-width="1.2" stroke-miterlimit="10" stroke-linecap="round" stroke-linejoin="round"/>
<path d="M524.874 323.382C527.955 321.628 531.735 321.628 534.816 323.382" stroke="#0B1427" stroke-width="1.2" stroke-miterlimit="10"/>
<path d="M532.423 350.82C536.625 347.151 544.548 347.364 548.718 350.82" stroke="#0B1427" stroke-width="1.2" stroke-miterlimit="10" stroke-linecap="round"/>
<path d="M538.524 354.629H542.553" stroke="#0B1427" stroke-width="1.2" stroke-miterlimit="10" stroke-linecap="round"/>
<path d="M576.103 407.061L574.313 391.873" stroke="#0B1427" stroke-width="1.2" stroke-miterlimit="10" stroke-linecap="round"/>
<path d="M505.04 407.061L507.726 391.873" stroke="#0B1427" stroke-width="1.2" stroke-miterlimit="10" stroke-linecap="round"/>
<path d="M546.286 342.936L546.302 342.865C546.498 342.007 546.541 341.125 546.433 340.259" stroke="#0B1427" stroke-width="1.2" stroke-miterlimit="10" stroke-linecap="round"/>
<path d="M534.858 342.936L534.842 342.866C534.645 342.003 534.603 341.116 534.712 340.246" stroke="#0B1427" stroke-width="1.2" stroke-miterlimit="10" stroke-linecap="round"/>
<path d="M553.505 324.432C553.505 325.563 552.587 326.479 551.453 326.479C550.32 326.479 549.401 325.563 549.401 324.432C549.401 323.301 550.32 322.384 551.453 322.384C552.587 322.384 553.505 323.301 553.505 324.432Z" fill="#0B1427"/>
<path d="M531.898 324.432C531.898 325.563 530.979 326.479 529.846 326.479C528.713 326.479 527.794 325.563 527.794 324.432C527.794 323.301 528.713 322.384 529.846 322.384C530.979 322.384 531.898 323.301 531.898 324.432Z" fill="#0B1427"/>
<path d="M499.069 564.679V579.527C499.069 581.662 497.773 583.585 495.792 584.39C495.792 584.39 465.08 597.25 457.675 597.742C454.642 597.943 451.716 596.589 449.91 594.15C447.718 591.188 448.41 587.004 451.441 584.903L473.689 568.965L499.069 564.679Z" fill="#E7742E" stroke="#0B1427" stroke-width="1.2" stroke-miterlimit="10" stroke-linejoin="round"/>
<path d="M456.152 597.697C455.9 597.67 455.646 597.647 455.398 597.599C455.25 597.57 455.107 597.524 454.961 597.488C454.742 597.435 454.521 597.386 454.307 597.316C454.154 597.266 454.008 597.199 453.859 597.141C453.659 597.064 453.458 596.991 453.264 596.899C453.115 596.829 452.973 596.742 452.828 596.663C452.644 596.564 452.458 596.468 452.282 596.355C452.14 596.265 452.006 596.16 451.869 596.061C451.702 595.94 451.532 595.822 451.373 595.69C451.24 595.58 451.118 595.457 450.991 595.339C450.842 595.198 450.69 595.06 450.55 594.909C450.43 594.78 450.32 594.64 450.208 594.504C450.072 594.338 449.934 594.174 449.809 593.998C449.726 593.879 449.644 593.76 449.57 593.638C449.552 593.609 449.534 593.579 449.516 593.55C448.615 592.007 448.414 590.217 448.85 588.583C448.851 588.582 448.851 588.58 448.852 588.579C448.896 588.413 448.951 588.25 449.009 588.088C449.027 588.037 449.043 587.985 449.062 587.934C449.104 587.824 449.155 587.717 449.203 587.61C449.246 587.514 449.286 587.418 449.333 587.324C449.364 587.263 449.4 587.205 449.433 587.145C449.505 587.013 449.577 586.881 449.659 586.754C449.673 586.732 449.689 586.711 449.704 586.69C450.04 586.179 450.448 585.708 450.929 585.298C450.957 585.275 450.987 585.255 451.015 585.232C451.157 585.115 451.302 584.999 451.456 584.893L454.376 582.869C457.034 581.894 459.894 584.298 462.236 587.236C465.45 591.269 462.882 597.355 457.731 597.738C457.712 597.739 457.693 597.74 457.674 597.742C457.288 597.767 456.904 597.766 456.524 597.743C456.399 597.735 456.277 597.71 456.152 597.697Z" fill="white" stroke="#0B1427" stroke-width="1.2" stroke-miterlimit="10" stroke-linejoin="round"/>
<path d="M457.396 593.557C464.801 593.065 499.069 578.864 499.069 578.864V579.527C499.069 581.662 497.773 583.585 495.792 584.39C495.792 584.39 465.08 597.25 457.674 597.742C454.642 597.943 451.716 596.589 449.91 594.15C448.676 592.483 448.356 590.429 448.853 588.577C449.053 589.059 449.399 593.327 457.396 593.557Z" fill="white" stroke="#0B1427" stroke-width="1.2" stroke-miterlimit="10" stroke-linejoin="round"/>
<path d="M473.244 579.14C470.306 576.523 468.029 575.014 464.451 575.393" stroke="#0B1427" stroke-width="1.2" stroke-miterlimit="10" stroke-linejoin="round"/>
<path d="M468.446 581.429C465.969 579.499 463.503 578.122 460.283 578.462" stroke="#0B1427" stroke-width="1.2" stroke-miterlimit="10" stroke-linejoin="round"/>
<path d="M478.344 576.408C475.234 573.453 472.527 571.913 468.619 572.326" stroke="#0B1427" stroke-width="1.2" stroke-miterlimit="10" stroke-linejoin="round"/>
<path d="M581.176 564.679V579.527C581.176 581.662 582.471 583.585 584.453 584.39C584.453 584.39 615.164 597.25 622.57 597.742C625.602 597.943 628.528 596.589 630.334 594.15C632.527 591.188 631.834 587.004 628.803 584.903L606.556 568.965L581.176 564.679Z" fill="#E7742E" stroke="#0B1427" stroke-width="1.2" stroke-miterlimit="10" stroke-linejoin="round"/>
<path d="M624.092 597.697C624.344 597.67 624.598 597.647 624.846 597.599C624.994 597.57 625.137 597.524 625.283 597.488C625.502 597.435 625.723 597.386 625.937 597.316C626.09 597.266 626.235 597.199 626.385 597.141C626.585 597.064 626.786 596.991 626.98 596.899C627.129 596.829 627.271 596.742 627.416 596.663C627.6 596.564 627.786 596.468 627.962 596.355C628.104 596.265 628.238 596.16 628.375 596.061C628.542 595.94 628.712 595.822 628.871 595.69C629.004 595.58 629.126 595.457 629.252 595.339C629.402 595.198 629.554 595.06 629.694 594.909C629.814 594.78 629.924 594.64 630.036 594.504C630.172 594.338 630.31 594.174 630.435 593.998C630.518 593.879 630.6 593.76 630.674 593.638C630.692 593.609 630.71 593.579 630.728 593.55C631.629 592.007 631.83 590.217 631.394 588.583C631.393 588.582 631.393 588.58 631.392 588.579C631.348 588.413 631.293 588.25 631.235 588.088C631.217 588.037 631.201 587.985 631.182 587.934C631.14 587.824 631.089 587.717 631.041 587.61C630.998 587.514 630.958 587.418 630.911 587.324C630.88 587.263 630.844 587.205 630.811 587.145C630.739 587.013 630.667 586.881 630.585 586.754C630.571 586.732 630.555 586.711 630.54 586.69C630.204 586.179 629.796 585.708 629.314 585.298C629.287 585.275 629.257 585.255 629.229 585.232C629.087 585.115 628.942 584.999 628.788 584.893L625.868 582.869C623.21 581.894 620.35 584.298 618.008 587.236C614.794 591.269 617.362 597.355 622.513 597.738C622.532 597.739 622.551 597.74 622.57 597.742C622.956 597.767 623.34 597.766 623.72 597.743C623.845 597.735 623.967 597.71 624.092 597.697Z" fill="white" stroke="#0B1427" stroke-width="1.2" stroke-miterlimit="10" stroke-linejoin="round"/>
<path d="M622.849 593.557C615.443 593.065 581.176 578.864 581.176 578.864V579.527C581.176 581.662 582.471 583.585 584.453 584.39C584.453 584.39 615.164 597.25 622.57 597.742C625.602 597.943 628.528 596.589 630.334 594.15C631.568 592.483 631.888 590.429 631.392 588.577C631.192 589.059 630.845 593.327 622.849 593.557Z" fill="white" stroke="#0B1427" stroke-width="1.2" stroke-miterlimit="10" stroke-linejoin="round"/>
<path d="M579.684 457.442H540.123V478.466L579.684 488.293V568.871L588.936 574.231L611.617 568.871V488.293V473.849C611.617 464.788 604.255 457.442 595.174 457.442H579.684Z" fill="#0B1427" stroke="#0B1427" stroke-width="1.2" stroke-miterlimit="10" stroke-linejoin="round"/>
<path d="M501.456 457.442H540.121V478.466L501.456 488.293V568.871L491.309 574.231L469.522 568.871V488.293V473.849C469.522 464.788 476.885 457.442 485.966 457.442H501.456Z" fill="#0B1427" stroke="#0B1427" stroke-width="1.2" stroke-miterlimit="10" stroke-linejoin="round"/>
<path d="M490.414 556.363V500.044" stroke="#0B1427" stroke-width="1.2" stroke-miterlimit="10" stroke-linejoin="round"/>
<path d="M490.414 574.231V563.699" stroke="#0B1427" stroke-width="1.2" stroke-miterlimit="10" stroke-linejoin="round"/>
<path d="M501.457 488.293V479.67" stroke="#0B1427" stroke-width="1.2" stroke-miterlimit="10" stroke-linejoin="round"/>
<path d="M588.936 556.363V500.044" stroke="#0B1427" stroke-width="1.2" stroke-miterlimit="10" stroke-linejoin="round"/>
<path d="M588.936 574.231V563.699" stroke="#0B1427" stroke-width="1.2" stroke-miterlimit="10" stroke-linejoin="round"/>
<path d="M579.682 488.293V479.67" stroke="#0B1427" stroke-width="1.2" stroke-miterlimit="10" stroke-linejoin="round"/>
<path d="M607 579.14C609.938 576.523 612.214 575.014 615.792 575.393" stroke="#0B1427" stroke-width="1.2" stroke-miterlimit="10" stroke-linejoin="round"/>
<path d="M611.799 581.429C614.276 579.499 616.742 578.122 619.962 578.462" stroke="#0B1427" stroke-width="1.2" stroke-miterlimit="10" stroke-linejoin="round"/>
<path d="M601.898 576.408C605.009 573.453 607.715 571.913 611.624 572.326" stroke="#0B1427" stroke-width="1.2" stroke-miterlimit="10" stroke-linejoin="round"/>
<path d="M592.617 398.102H488.522C485.17 398.102 482.61 401.086 483.127 404.39L491.096 455.329H590.042L598.011 404.39C598.528 401.086 595.968 398.102 592.617 398.102Z" fill="#DEDEDE" stroke="#0B1427" stroke-width="1.2" stroke-miterlimit="10"/>
<path d="M597.291 451.188H483.848C483.848 455.706 487.519 459.37 492.047 459.37H589.091C593.62 459.37 597.291 455.706 597.291 451.188Z" fill="#DEDEDE" stroke="#0B1427" stroke-width="1.2" stroke-miterlimit="10"/>
<path d="M546.853 428.502C546.853 431.268 544.039 433.51 540.568 433.51C537.097 433.51 534.283 431.268 534.283 428.502C534.283 425.736 537.097 423.494 540.568 423.494C544.039 423.494 546.853 425.736 546.853 428.502Z" fill="white"/>
<path d="M548.911 580.324H571.31" stroke="#0B1427" stroke-width="1.2" stroke-miterlimit="10"/>
<path d="M564.027 589.639H580.925" stroke="#0B1427" stroke-width="1.2" stroke-miterlimit="10"/>
<path d="M517.069 589.639H500.51" stroke="#0B1427" stroke-width="1.2" stroke-miterlimit="10"/>
<path d="M507.513 580.327H533.156" stroke="#0B1427" stroke-width="1.2" stroke-miterlimit="10"/>
<path d="M436.414 548.408H428.142" stroke="#0B1427" stroke-width="1.2" stroke-miterlimit="10"/>
<path d="M441.968 557.722H409.883" stroke="#0B1427" stroke-width="1.2" stroke-miterlimit="10"/>
<path d="M329.422 586.086H360.865" stroke="#0B1427" stroke-width="1.2" stroke-miterlimit="10"/>
<path d="M347.568 576.774H298.877" stroke="#0B1427" stroke-width="1.2" stroke-miterlimit="10"/>
<path d="M505.456 155.2H492.156V140H482.756V155.2H455.856L490.156 111H479.356L443.556 156.8V163.8H482.456V181H492.156V163.8H505.456V155.2ZM540.05 181.8C556.35 181.8 568.55 168.8 568.55 146C568.55 123.2 556.35 110.2 540.05 110.2C523.65 110.2 511.45 123.2 511.45 146C511.45 168.8 523.65 181.8 540.05 181.8ZM540.05 172.9C529.05 172.9 521.45 163.9 521.45 146C521.45 128.1 529.05 119.1 540.05 119.1C550.95 119.1 558.55 128.1 558.55 146C558.55 163.9 550.95 172.9 540.05 172.9ZM639.05 155.2H625.75V140H616.35V155.2H589.45L623.75 111H612.95L577.15 156.8V163.8H616.05V181H625.75V163.8H639.05V155.2Z" fill="#E7742E"/>
<path d="M446.786 215.8V234.592L431.666 215.8H428.714V241H432.314V222.208L447.434 241H450.386V215.8H446.786ZM469.304 241.288C476.972 241.288 482.66 235.816 482.66 228.4C482.66 220.984 476.972 215.512 469.304 215.512C461.564 215.512 455.876 221.02 455.876 228.4C455.876 235.78 461.564 241.288 469.304 241.288ZM469.304 238.084C463.652 238.084 459.476 233.98 459.476 228.4C459.476 222.82 463.652 218.716 469.304 218.716C474.884 218.716 479.06 222.82 479.06 228.4C479.06 233.98 474.884 238.084 469.304 238.084ZM492.815 241H496.379V218.932H505.019V215.8H484.175V218.932H492.815V241ZM536.392 218.932V215.8H518.608V241H522.208V230.812H534.844V227.716H522.208V218.932H536.392ZM552.554 241.288C560.222 241.288 565.91 235.816 565.91 228.4C565.91 220.984 560.222 215.512 552.554 215.512C544.814 215.512 539.126 221.02 539.126 228.4C539.126 235.78 544.814 241.288 552.554 241.288ZM552.554 238.084C546.902 238.084 542.726 233.98 542.726 228.4C542.726 222.82 546.902 218.716 552.554 218.716C558.134 218.716 562.31 222.82 562.31 228.4C562.31 233.98 558.134 238.084 552.554 238.084ZM581.853 241.288C588.513 241.288 592.509 237.436 592.509 230.128V215.8H589.017V229.984C589.017 235.564 586.425 238.084 581.889 238.084C577.353 238.084 574.797 235.564 574.797 229.984V215.8H571.197V230.128C571.197 237.436 575.229 241.288 581.853 241.288ZM617.961 215.8V234.592L602.841 215.8H599.889V241H603.489V222.208L618.609 241H621.561V215.8H617.961ZM629.104 241H639.724C647.824 241 653.332 235.888 653.332 228.4C653.332 220.912 647.824 215.8 639.724 215.8H629.104V241ZM632.704 237.868V218.932H639.508C645.736 218.932 649.732 222.748 649.732 228.4C649.732 234.052 645.736 237.868 639.508 237.868H632.704Z" fill="#0B1427"/>
<path d="M363.486 660V647.4H364.8V657.84L372.864 647.4H374.07V660H372.756V649.578L364.692 660H363.486ZM380.554 660.108C379.87 660.108 379.192 660.012 378.52 659.82C377.848 659.628 377.254 659.334 376.738 658.938L377.152 657.984C377.608 658.32 378.136 658.578 378.736 658.758C379.336 658.926 379.93 659.01 380.518 659.01C381.106 658.998 381.616 658.914 382.048 658.758C382.48 658.602 382.816 658.386 383.056 658.11C383.296 657.834 383.416 657.522 383.416 657.174C383.416 656.67 383.188 656.28 382.732 656.004C382.276 655.716 381.652 655.572 380.86 655.572H379.24V654.636H380.77C381.238 654.636 381.652 654.576 382.012 654.456C382.372 654.336 382.648 654.162 382.84 653.934C383.044 653.706 383.146 653.436 383.146 653.124C383.146 652.788 383.026 652.5 382.786 652.26C382.558 652.02 382.24 651.84 381.832 651.72C381.424 651.6 380.962 651.54 380.446 651.54C379.978 651.552 379.492 651.624 378.988 651.756C378.484 651.876 377.986 652.062 377.494 652.314L377.134 651.324C377.686 651.036 378.232 650.82 378.772 650.676C379.324 650.52 379.876 650.442 380.428 650.442C381.184 650.418 381.862 650.508 382.462 650.712C383.074 650.916 383.56 651.21 383.92 651.594C384.28 651.966 384.46 652.416 384.46 652.944C384.46 653.412 384.316 653.82 384.028 654.168C383.74 654.516 383.356 654.786 382.876 654.978C382.396 655.17 381.85 655.266 381.238 655.266L381.292 654.924C382.372 654.924 383.212 655.134 383.812 655.554C384.424 655.974 384.73 656.544 384.73 657.264C384.73 657.828 384.544 658.326 384.172 658.758C383.8 659.178 383.296 659.508 382.66 659.748C382.036 659.988 381.334 660.108 380.554 660.108ZM387.631 660V650.55H391.807C392.875 650.55 393.715 650.754 394.327 651.162C394.951 651.57 395.263 652.17 395.263 652.962C395.263 653.73 394.969 654.324 394.381 654.744C393.793 655.152 393.019 655.356 392.059 655.356L392.311 654.978C393.439 654.978 394.267 655.188 394.795 655.608C395.323 656.028 395.587 656.634 395.587 657.426C395.587 658.242 395.287 658.878 394.687 659.334C394.099 659.778 393.181 660 391.933 660H387.631ZM388.873 658.992H391.879C392.683 658.992 393.289 658.866 393.697 658.614C394.117 658.35 394.327 657.93 394.327 657.354C394.327 656.778 394.141 656.358 393.769 656.094C393.397 655.83 392.809 655.698 392.005 655.698H388.873V658.992ZM388.873 654.744H391.717C392.449 654.744 393.007 654.606 393.391 654.33C393.787 654.054 393.985 653.652 393.985 653.124C393.985 652.596 393.787 652.2 393.391 651.936C393.007 651.672 392.449 651.54 391.717 651.54H388.873V654.744ZM398.583 660V650.55H399.861V658.056L406.179 650.55H407.313V660H406.035V652.476L399.735 660H398.583ZM410.975 660V650.55H412.253V654.726H418.211V650.55H419.489V660H418.211V655.824H412.253V660H410.975ZM423.122 660V650.55H424.4V658.056L430.718 650.55H431.852V660H430.574V652.476L424.274 660H423.122ZM437.314 660V651.324L437.638 651.666H433.732V650.55H442.174V651.666H438.268L438.592 651.324V660H437.314ZM447.633 660.09C446.649 660.09 445.785 659.886 445.041 659.478C444.297 659.058 443.715 658.488 443.295 657.768C442.875 657.036 442.665 656.202 442.665 655.266C442.665 654.33 442.863 653.502 443.259 652.782C443.667 652.062 444.219 651.498 444.915 651.09C445.623 650.67 446.415 650.46 447.291 650.46C448.179 650.46 448.965 650.664 449.649 651.072C450.345 651.468 450.891 652.032 451.287 652.764C451.683 653.484 451.881 654.318 451.881 655.266C451.881 655.326 451.875 655.392 451.863 655.464C451.863 655.524 451.863 655.59 451.863 655.662H443.637V654.708H451.179L450.675 655.086C450.675 654.402 450.525 653.796 450.225 653.268C449.937 652.728 449.541 652.308 449.037 652.008C448.533 651.708 447.951 651.558 447.291 651.558C446.643 651.558 446.061 651.708 445.545 652.008C445.029 652.308 444.627 652.728 444.339 653.268C444.051 653.808 443.907 654.426 443.907 655.122V655.32C443.907 656.04 444.063 656.676 444.375 657.228C444.699 657.768 445.143 658.194 445.707 658.506C446.283 658.806 446.937 658.956 447.669 658.956C448.245 658.956 448.779 658.854 449.271 658.65C449.775 658.446 450.207 658.134 450.567 657.714L451.287 658.542C450.867 659.046 450.339 659.43 449.703 659.694C449.079 659.958 448.389 660.09 447.633 660.09ZM453.9 662.628L454.692 659.298L454.836 660.072C454.56 660.072 454.326 659.982 454.134 659.802C453.954 659.622 453.864 659.388 453.864 659.1C453.864 658.812 453.954 658.578 454.134 658.398C454.326 658.218 454.554 658.128 454.818 658.128C455.094 658.128 455.316 658.224 455.484 658.416C455.664 658.608 455.754 658.836 455.754 659.1C455.754 659.196 455.748 659.292 455.736 659.388C455.724 659.484 455.7 659.592 455.664 659.712C455.628 659.832 455.58 659.976 455.52 660.144L454.764 662.628H453.9ZM465.035 660V651.324L465.359 651.666H461.453V650.55H469.895V651.666H465.989L466.313 651.324V660H465.035ZM477.611 660V657.912L477.557 657.57V654.078C477.557 653.274 477.329 652.656 476.873 652.224C476.429 651.792 475.763 651.576 474.875 651.576C474.263 651.576 473.681 651.678 473.129 651.882C472.577 652.086 472.109 652.356 471.725 652.692L471.149 651.738C471.629 651.33 472.205 651.018 472.877 650.802C473.549 650.574 474.257 650.46 475.001 650.46C476.225 650.46 477.167 650.766 477.827 651.378C478.499 651.978 478.835 652.896 478.835 654.132V660H477.611ZM474.353 660.09C473.645 660.09 473.027 659.976 472.499 659.748C471.983 659.508 471.587 659.184 471.311 658.776C471.035 658.356 470.897 657.876 470.897 657.336C470.897 656.844 471.011 656.4 471.239 656.004C471.479 655.596 471.863 655.272 472.391 655.032C472.931 654.78 473.651 654.654 474.551 654.654H477.809V655.608H474.587C473.675 655.608 473.039 655.77 472.679 656.094C472.331 656.418 472.157 656.82 472.157 657.3C472.157 657.84 472.367 658.272 472.787 658.596C473.207 658.92 473.795 659.082 474.551 659.082C475.271 659.082 475.889 658.92 476.405 658.596C476.933 658.26 477.317 657.78 477.557 657.156L477.845 658.038C477.605 658.662 477.185 659.16 476.585 659.532C475.997 659.904 475.253 660.09 474.353 660.09ZM489.167 660L485.279 655.32L486.341 654.69L490.679 660H489.167ZM482.237 660V650.55H483.515V660H482.237ZM483.119 655.788V654.69H486.161V655.788H483.119ZM486.449 655.41L485.261 655.23L489.023 650.55H490.409L486.449 655.41ZM498.388 660V657.912L498.334 657.57V654.078C498.334 653.274 498.106 652.656 497.65 652.224C497.206 651.792 496.54 651.576 495.652 651.576C495.04 651.576 494.458 651.678 493.906 651.882C493.354 652.086 492.886 652.356 492.502 652.692L491.926 651.738C492.406 651.33 492.982 651.018 493.654 650.802C494.326 650.574 495.034 650.46 495.778 650.46C497.002 650.46 497.944 650.766 498.604 651.378C499.276 651.978 499.612 652.896 499.612 654.132V660H498.388ZM495.13 660.09C494.422 660.09 493.804 659.976 493.276 659.748C492.76 659.508 492.364 659.184 492.088 658.776C491.812 658.356 491.674 657.876 491.674 657.336C491.674 656.844 491.788 656.4 492.016 656.004C492.256 655.596 492.64 655.272 493.168 655.032C493.708 654.78 494.428 654.654 495.328 654.654H498.586V655.608H495.364C494.452 655.608 493.816 655.77 493.456 656.094C493.108 656.418 492.934 656.82 492.934 657.3C492.934 657.84 493.144 658.272 493.564 658.596C493.984 658.92 494.572 659.082 495.328 659.082C496.048 659.082 496.666 658.92 497.182 658.596C497.71 658.26 498.094 657.78 498.334 657.156L498.622 658.038C498.382 658.662 497.962 659.16 497.362 659.532C496.774 659.904 496.03 660.09 495.13 660.09ZM509.116 660V656.598L509.35 656.868H506.146C504.934 656.868 503.986 656.604 503.302 656.076C502.618 655.548 502.276 654.78 502.276 653.772C502.276 652.692 502.642 651.888 503.374 651.36C504.106 650.82 505.084 650.55 506.308 650.55H510.286V660H509.116ZM502.204 660L504.796 656.364H506.128L503.59 660H502.204ZM509.116 656.22V651.288L509.35 651.666H506.344C505.468 651.666 504.784 651.834 504.292 652.17C503.812 652.506 503.572 653.052 503.572 653.808C503.572 655.212 504.466 655.914 506.254 655.914H509.35L509.116 656.22ZM522.601 660.09C521.665 660.09 520.825 659.886 520.081 659.478C519.349 659.058 518.773 658.488 518.353 657.768C517.933 657.036 517.723 656.202 517.723 655.266C517.723 654.318 517.933 653.484 518.353 652.764C518.773 652.044 519.349 651.48 520.081 651.072C520.825 650.664 521.665 650.46 522.601 650.46C523.405 650.46 524.131 650.616 524.779 650.928C525.427 651.24 525.937 651.708 526.309 652.332L525.355 652.98C525.031 652.5 524.629 652.146 524.149 651.918C523.669 651.69 523.147 651.576 522.583 651.576C521.911 651.576 521.305 651.732 520.765 652.044C520.225 652.344 519.799 652.77 519.487 653.322C519.175 653.874 519.019 654.522 519.019 655.266C519.019 656.01 519.175 656.658 519.487 657.21C519.799 657.762 520.225 658.194 520.765 658.506C521.305 658.806 521.911 658.956 522.583 658.956C523.147 658.956 523.669 658.842 524.149 658.614C524.629 658.386 525.031 658.038 525.355 657.57L526.309 658.218C525.937 658.83 525.427 659.298 524.779 659.622C524.131 659.934 523.405 660.09 522.601 660.09ZM530.408 660V651.324L530.732 651.666H526.826V650.55H535.268V651.666H531.362L531.686 651.324V660H530.408ZM541.994 660.09C541.178 660.09 540.44 659.904 539.78 659.532C539.12 659.148 538.592 658.602 538.196 657.894C537.812 657.174 537.62 656.298 537.62 655.266C537.62 654.234 537.812 653.364 538.196 652.656C538.58 651.936 539.102 651.39 539.762 651.018C540.422 650.646 541.166 650.46 541.994 650.46C542.894 650.46 543.698 650.664 544.406 651.072C545.126 651.468 545.69 652.032 546.098 652.764C546.506 653.484 546.71 654.318 546.71 655.266C546.71 656.226 546.506 657.066 546.098 657.786C545.69 658.506 545.126 659.07 544.406 659.478C543.698 659.886 542.894 660.09 541.994 660.09ZM537.116 663.492V650.55H538.34V653.394L538.214 655.284L538.394 657.192V663.492H537.116ZM541.904 658.956C542.576 658.956 543.176 658.806 543.704 658.506C544.232 658.194 544.652 657.762 544.964 657.21C545.276 656.646 545.432 655.998 545.432 655.266C545.432 654.534 545.276 653.892 544.964 653.34C544.652 652.788 544.232 652.356 543.704 652.044C543.176 651.732 542.576 651.576 541.904 651.576C541.232 651.576 540.626 651.732 540.086 652.044C539.558 652.356 539.138 652.788 538.826 653.34C538.526 653.892 538.376 654.534 538.376 655.266C538.376 655.998 538.526 656.646 538.826 657.21C539.138 657.762 539.558 658.194 540.086 658.506C540.626 658.806 541.232 658.956 541.904 658.956ZM555.271 660V657.912L555.217 657.57V654.078C555.217 653.274 554.989 652.656 554.533 652.224C554.089 651.792 553.423 651.576 552.535 651.576C551.923 651.576 551.341 651.678 550.789 651.882C550.237 652.086 549.769 652.356 549.385 652.692L548.809 651.738C549.289 651.33 549.865 651.018 550.537 650.802C551.209 650.574 551.917 650.46 552.661 650.46C553.885 650.46 554.827 650.766 555.487 651.378C556.159 651.978 556.495 652.896 556.495 654.132V660H555.271ZM552.013 660.09C551.305 660.09 550.687 659.976 550.159 659.748C549.643 659.508 549.247 659.184 548.971 658.776C548.695 658.356 548.557 657.876 548.557 657.336C548.557 656.844 548.671 656.4 548.899 656.004C549.139 655.596 549.523 655.272 550.051 655.032C550.591 654.78 551.311 654.654 552.211 654.654H555.469V655.608H552.247C551.335 655.608 550.699 655.77 550.339 656.094C549.991 656.418 549.817 656.82 549.817 657.3C549.817 657.84 550.027 658.272 550.447 658.596C550.867 658.92 551.455 659.082 552.211 659.082C552.931 659.082 553.549 658.92 554.065 658.596C554.593 658.26 554.977 657.78 555.217 657.156L555.505 658.038C555.265 658.662 554.845 659.16 554.245 659.532C553.657 659.904 552.913 660.09 552.013 660.09ZM559.897 660V650.55H561.175V654.726H567.133V650.55H568.411V660H567.133V655.824H561.175V660H559.897ZM572.044 660V650.55H573.322V658.056L579.64 650.55H580.774V660H579.496V652.476L573.196 660H572.044ZM584.436 660V650.55H585.714V658.884H591.492V650.55H592.77V660H584.436ZM593.094 662.286V659.892L593.418 660H591.492V658.884H594.3V662.286H593.094ZM602.609 660V657.912L602.555 657.57V654.078C602.555 653.274 602.327 652.656 601.871 652.224C601.427 651.792 600.761 651.576 599.873 651.576C599.261 651.576 598.679 651.678 598.127 651.882C597.575 652.086 597.107 652.356 596.723 652.692L596.147 651.738C596.627 651.33 597.203 651.018 597.875 650.802C598.547 650.574 599.255 650.46 599.999 650.46C601.223 650.46 602.165 650.766 602.825 651.378C603.497 651.978 603.833 652.896 603.833 654.132V660H602.609ZM599.351 660.09C598.643 660.09 598.025 659.976 597.497 659.748C596.981 659.508 596.585 659.184 596.309 658.776C596.033 658.356 595.895 657.876 595.895 657.336C595.895 656.844 596.009 656.4 596.237 656.004C596.477 655.596 596.861 655.272 597.389 655.032C597.929 654.78 598.649 654.654 599.549 654.654H602.807V655.608H599.585C598.673 655.608 598.037 655.77 597.677 656.094C597.329 656.418 597.155 656.82 597.155 657.3C597.155 657.84 597.365 658.272 597.785 658.596C598.205 658.92 598.793 659.082 599.549 659.082C600.269 659.082 600.887 658.92 601.403 658.596C601.931 658.26 602.315 657.78 602.555 657.156L602.843 658.038C602.603 658.662 602.183 659.16 601.583 659.532C600.995 659.904 600.251 660.09 599.351 660.09ZM611.946 660V650.55H613.224V654.726H619.182V650.55H620.46V660H619.182V655.824H613.224V660H611.946ZM628.142 660.09C627.158 660.09 626.294 659.886 625.55 659.478C624.806 659.058 624.224 658.488 623.804 657.768C623.384 657.036 623.174 656.202 623.174 655.266C623.174 654.33 623.372 653.502 623.768 652.782C624.176 652.062 624.728 651.498 625.424 651.09C626.132 650.67 626.924 650.46 627.8 650.46C628.688 650.46 629.474 650.664 630.158 651.072C630.854 651.468 631.4 652.032 631.796 652.764C632.192 653.484 632.39 654.318 632.39 655.266C632.39 655.326 632.384 655.392 632.372 655.464C632.372 655.524 632.372 655.59 632.372 655.662H624.146V654.708H631.688L631.184 655.086C631.184 654.402 631.034 653.796 630.734 653.268C630.446 652.728 630.05 652.308 629.546 652.008C629.042 651.708 628.46 651.558 627.8 651.558C627.152 651.558 626.57 651.708 626.054 652.008C625.538 652.308 625.136 652.728 624.848 653.268C624.56 653.808 624.416 654.426 624.416 655.122V655.32C624.416 656.04 624.572 656.676 624.884 657.228C625.208 657.768 625.652 658.194 626.216 658.506C626.792 658.806 627.446 658.956 628.178 658.956C628.754 658.956 629.288 658.854 629.78 658.65C630.284 658.446 630.716 658.134 631.076 657.714L631.796 658.542C631.376 659.046 630.848 659.43 630.212 659.694C629.588 659.958 628.898 660.09 628.142 660.09ZM639.93 660V650.55H641.208V654.726H647.166V650.55H648.444V660H647.166V655.824H641.208V660H639.93ZM657.945 660V657.912L657.891 657.57V654.078C657.891 653.274 657.663 652.656 657.207 652.224C656.763 651.792 656.097 651.576 655.209 651.576C654.597 651.576 654.015 651.678 653.463 651.882C652.911 652.086 652.443 652.356 652.059 652.692L651.483 651.738C651.963 651.33 652.539 651.018 653.211 650.802C653.883 650.574 654.591 650.46 655.335 650.46C656.559 650.46 657.501 650.766 658.161 651.378C658.833 651.978 659.169 652.896 659.169 654.132V660H657.945ZM654.687 660.09C653.979 660.09 653.361 659.976 652.833 659.748C652.317 659.508 651.921 659.184 651.645 658.776C651.369 658.356 651.231 657.876 651.231 657.336C651.231 656.844 651.345 656.4 651.573 656.004C651.813 655.596 652.197 655.272 652.725 655.032C653.265 654.78 653.985 654.654 654.885 654.654H658.143V655.608H654.921C654.009 655.608 653.373 655.77 653.013 656.094C652.665 656.418 652.491 656.82 652.491 657.3C652.491 657.84 652.701 658.272 653.121 658.596C653.541 658.92 654.129 659.082 654.885 659.082C655.605 659.082 656.223 658.92 656.739 658.596C657.267 658.26 657.651 657.78 657.891 657.156L658.179 658.038C657.939 658.662 657.519 659.16 656.919 659.532C656.331 659.904 655.587 660.09 654.687 660.09ZM662.571 660V650.55H663.849V658.056L670.167 650.55H671.301V660H670.023V652.476L663.723 660H662.571ZM666.855 649.182C666.063 649.182 665.421 648.984 664.929 648.588C664.449 648.18 664.197 647.598 664.173 646.842H665.091C665.103 647.322 665.271 647.7 665.595 647.976C665.919 648.252 666.339 648.39 666.855 648.39C667.371 648.39 667.791 648.252 668.115 647.976C668.451 647.7 668.625 647.322 668.637 646.842H669.555C669.543 647.598 669.291 648.18 668.799 648.588C668.307 648.984 667.659 649.182 666.855 649.182ZM681.444 659.388V651.666H676.89L676.782 653.772C676.758 654.408 676.716 655.032 676.656 655.644C676.608 656.256 676.518 656.82 676.386 657.336C676.266 657.84 676.092 658.254 675.864 658.578C675.636 658.89 675.342 659.07 674.982 659.118L673.704 658.884C674.076 658.896 674.382 658.764 674.622 658.488C674.862 658.2 675.048 657.81 675.18 657.318C675.312 656.826 675.408 656.268 675.468 655.644C675.528 655.008 675.576 654.36 675.612 653.7L675.738 650.55H682.722V659.388H681.444ZM673.308 662.286V658.884H684.198V662.286H682.992V660H674.514V662.286H673.308ZM690.738 660.09C689.754 660.09 688.89 659.886 688.146 659.478C687.402 659.058 686.82 658.488 686.4 657.768C685.98 657.036 685.77 656.202 685.77 655.266C685.77 654.33 685.968 653.502 686.364 652.782C686.772 652.062 687.324 651.498 688.02 651.09C688.728 650.67 689.52 650.46 690.396 650.46C691.284 650.46 692.07 650.664 692.754 651.072C693.45 651.468 693.996 652.032 694.392 652.764C694.788 653.484 694.986 654.318 694.986 655.266C694.986 655.326 694.98 655.392 694.968 655.464C694.968 655.524 694.968 655.59 694.968 655.662H686.742V654.708H694.284L693.78 655.086C693.78 654.402 693.63 653.796 693.33 653.268C693.042 652.728 692.646 652.308 692.142 652.008C691.638 651.708 691.056 651.558 690.396 651.558C689.748 651.558 689.166 651.708 688.65 652.008C688.134 652.308 687.732 652.728 687.444 653.268C687.156 653.808 687.012 654.426 687.012 655.122V655.32C687.012 656.04 687.168 656.676 687.48 657.228C687.804 657.768 688.248 658.194 688.812 658.506C689.388 658.806 690.042 658.956 690.774 658.956C691.35 658.956 691.884 658.854 692.376 658.65C692.88 658.446 693.312 658.134 693.672 657.714L694.392 658.542C693.972 659.046 693.444 659.43 692.808 659.694C692.184 659.958 691.494 660.09 690.738 660.09ZM697.815 660V650.55H699.093V654.726H705.051V650.55H706.329V660H705.051V655.824H699.093V660H697.815ZM715.83 660V657.912L715.776 657.57V654.078C715.776 653.274 715.548 652.656 715.092 652.224C714.648 651.792 713.982 651.576 713.094 651.576C712.482 651.576 711.9 651.678 711.348 651.882C710.796 652.086 710.328 652.356 709.944 652.692L709.368 651.738C709.848 651.33 710.424 651.018 711.096 650.802C711.768 650.574 712.476 650.46 713.22 650.46C714.444 650.46 715.386 650.766 716.046 651.378C716.718 651.978 717.054 652.896 717.054 654.132V660H715.83ZM712.572 660.09C711.864 660.09 711.246 659.976 710.718 659.748C710.202 659.508 709.806 659.184 709.53 658.776C709.254 658.356 709.116 657.876 709.116 657.336C709.116 656.844 709.23 656.4 709.458 656.004C709.698 655.596 710.082 655.272 710.61 655.032C711.15 654.78 711.87 654.654 712.77 654.654H716.028V655.608H712.806C711.894 655.608 711.258 655.77 710.898 656.094C710.55 656.418 710.376 656.82 710.376 657.3C710.376 657.84 710.586 658.272 711.006 658.596C711.426 658.92 712.014 659.082 712.77 659.082C713.49 659.082 714.108 658.92 714.624 658.596C715.152 658.26 715.536 657.78 715.776 657.156L716.064 658.038C715.824 658.662 715.404 659.16 714.804 659.532C714.216 659.904 713.472 660.09 712.572 660.09Z" fill="#0B1427"/>
</svg>
