<svg xmlns="http://www.w3.org/2000/svg" width="128" height="128"><svg xmlns="http://www.w3.org/2000/svg" xmlns:xlink="http://www.w3.org/1999/xlink" width="128" height="128" data-background-color="#ffffff" transform="matrix(.80469 0 0 .80469 12.76 12.76)" viewBox="0 0 95 95"><svg width="95.481" height="95.481" transform="translate(-.24 -.24)" viewBox="0 0 95.481 95.481"><svg width="95.481" height="95.481" viewBox="0 0 95.481 95.481"><svg width="95.481" height="95.481" viewBox="0 0 95.481 95.481"><svg width="95.481" height="95.481" viewBox="0 0 95.481 95.481"><svg width="95.481" height="95.481" viewBox="0 0 95.481 95.481"><svg width="95.481" height="95.481" viewBox="0 0 95.481 95.481"><svg xmlns="http://www.w3.org/2000/svg" xmlns:xlink="http://www.w3.org/1999/xlink" xml:space="preserve" width="95.481" height="95.481" class="icon-icon-0" data-fill-palette-color="accent" viewBox="8.4 8.4 83.2 83.2"><path fill="#ff851b" d="M50 8.4C27 8.4 8.4 27 8.4 50S27 91.6 50 91.6 91.6 73 91.6 50 73 8.4 50 8.4zm25 66.7c-6.4 6.4-15.2 10.3-25 10.3-9.3 0-17.8-3.6-24.1-9.5-.1-4.7 2-5.3 2.9-5.5 4.4-1.1 7.8-2.4 10.4-3.7 2.6 3.4 6.6 5.4 10.9 5.4 4.4 0 8.5-2.1 11.1-5.6 2.7 1.4 6.2 2.7 10.9 3.9 2.3.6 3 1.8 2.9 4.7zM50.2 54.9h-.1c-2.8 0-4.9-.9-6.5-2.7-3.5-3.9-3.5-11.4-3.3-14V38c.4-9.2 6.7-10.2 9.4-10.2H50.3c2.7 0 9 1 9.4 10.2v.2c.3 2.6.2 10.1-3.2 14-1.4 1.8-3.5 2.7-6.3 2.7zm5.9 8.1c-1.4 1.8-3.6 2.9-6 2.9-2.2 0-4.3-1-5.7-2.6 1-.9 1.7-1.7 2.2-2.5 1 .2 2.1.3 3.3.4H50.5c1.3 0 2.6-.2 3.7-.5.4.7 1 1.4 1.9 2.3zm23.8 5.9c-1.5-2.7-4-3.9-6.4-4.5-8.7-2.2-12.4-4.9-13.8-6.5.5-.5 1.1-1 1.6-1.5 5.8-6.5 4.9-17.4 4.8-18.7-.6-11.9-8.8-16.1-15.7-16.1h-.6c-6.9 0-15.1 4.2-15.7 16.1-.1 1.3-1 12.2 4.8 18.7.6.6 1.2 1.2 1.9 1.7-1.5 1.7-5.3 4.2-13.6 6.3-3.1.8-5.3 2.7-6.5 5.5-3.9-5.7-6.2-12.5-6.2-19.9 0-19.5 15.9-35.4 35.4-35.4S85.3 30.5 85.3 50c.1 7-1.9 13.4-5.4 18.9z" data-fill-palette-color="accent"/></svg></svg></svg></svg></svg></svg></svg></svg></svg>