<svg xmlns="http://www.w3.org/2000/svg" width="134" height="78" fill="none"><path fill="#E7742E" d="M124.725 26.236c-.411-.55-.822-.96-2.876-1.098-.548 0-2.192-.138-5.069-.138-7.534 0-12.739 2.334-15.342 6.863.685-4.53-3.698-6.863-13.287-6.863-11.233 0-18.356 4.53-21.232 13.726-1.096 3.431-1.096 6.176-.274 8.373h-2.74c-2.055.137-4.794.274-6.575.274-4.11 0-6.712-.686-7.671-2.059-.822-1.235-.822-3.568.274-7 1.78-5.627 6.027-8.098 12.876-8.098 3.562 0 6.986.412 6.986.412.412 0 .685-.55.685-.96l-.137-.413-.274-1.921c-.137-1.236-1.096-1.922-2.74-2.196C65.824 25 64.59 25 62.947 25h-.137c-8.904 0-15.205 3.02-18.63 8.785C45.412 27.882 41.303 25 31.851 25c-5.342 0-9.178.138-11.37.412-1.78.274-2.876.96-3.287 2.196l-.822 2.47c-.137.413.137.687.685.687.41 0 2.055-.275 4.794-.412 3.699-.275 6.301-.412 8.082-.412 5.206 0 7.534 1.373 6.712 3.98-.137.55-.548.961-1.233 1.099-4.93.823-8.903 1.372-11.78 1.784-8.219 1.098-13.013 3.569-14.246 7.686-1.78 5.628 2.603 8.373 13.15 8.373 5.205 0 9.726-.275 13.288-.96 2.054-.413 3.15-.824 3.561-2.197l1.918-6.314c-.137 6.314 4.11 9.47 13.15 9.47 3.836 0 7.534-.137 9.315-.411 1.78-.275 2.74-.686 3.15-2.059l.411-1.921C69.248 51.49 73.495 53 79.932 53c6.849 0 10.822-.138 11.917-.549.96-.275 1.507-.824 1.781-1.51 0-.137 0-.274.137-.412l.822-2.608c.138-.411-.137-.686-.685-.686l-4.383.275c-2.877.137-5.205.274-6.85.274-3.15 0-5.205-.274-6.437-.686-1.781-.686-2.603-1.922-2.466-3.98l13.835-1.785c6.164-.823 10.41-2.745 12.466-5.765l-4.795 16.06c-.137.274 0 .548.138.686.137.137.41.274.958.274h5.754c.959 0 1.369-.549 1.506-.96l5.069-17.707c.685-2.333 2.739-3.431 6.575-3.431 3.424 0 5.89 0 7.534.138h.137c.274 0 .822-.138 1.233-.824l.822-2.47c0-.412 0-.824-.274-1.099h-.001ZM32.399 47.373c-1.78.275-4.383.412-7.67.412-5.891 0-8.357-1.235-7.672-3.568.548-1.648 2.055-2.745 4.52-3.02l13.288-1.784-2.466 7.96ZM93.63 33.1c-.548 1.784-3.15 3.02-7.808 3.706l-11.095 1.51.274-.961c.959-3.02 2.192-4.942 3.835-6.04 1.644-1.098 4.384-1.647 8.22-1.647 5.068.138 7.26 1.236 6.574 3.432Z"/></svg>