<svg xmlns="http://www.w3.org/2000/svg" width="134" height="78" fill="none"><path fill="#E7742E" fill-rule="evenodd" d="M80.926 4c.448 4.062-1.18 8.137-3.593 11.068-2.412 2.926-6.37 5.207-10.245 4.905-.531-3.979 1.428-8.128 3.662-10.718C73.245 6.324 77.45 4.14 80.926 4Zm11.306 23.445c-.604.376-7.208 4.491-7.135 12.85.091 10.1 8.574 13.55 8.895 13.68l.008.004a4.777 4.777 0 0 0-.012.041c-.158.524-1.495 4.981-4.577 9.581-2.767 4.118-5.634 8.224-10.152 8.313-2.17.04-3.622-.6-5.13-1.267-1.58-.698-3.221-1.423-5.817-1.423-2.718 0-4.436.747-6.091 1.466-1.435.623-2.823 1.226-4.776 1.305-4.363.17-7.682-4.455-10.47-8.56-5.692-8.398-10.047-23.733-4.2-34.08 2.9-5.141 8.087-8.394 13.721-8.48 2.428-.047 4.78.904 6.838 1.736 1.572.636 2.972 1.202 4.105 1.202 1.016 0 2.379-.548 3.969-1.187 2.502-1.006 5.567-2.238 8.724-1.912 2.165.094 8.234.89 12.133 6.71a3.863 3.863 0 0 1-.033.02Z" clip-rule="evenodd"/></svg>