<svg xmlns="http://www.w3.org/2000/svg" width="27" height="24" fill="none"><path fill="#E7742E" stroke="#000" d="m22.432 13.226-.836.85-7.242 7.363a1.231 1.231 0 0 0-.333.856c.003.321.13.627.35.852.221.224.518.35.827.353.308.003.605-.117.83-.336l10.121-10.291a1.23 1.23 0 0 0 .351-.863 1.23 1.23 0 0 0-.35-.862L16.023.853A1.174 1.174 0 0 0 15.188.5c-.312 0-.614.126-.837.353l8.081 12.373Zm0 0H21.24m1.193 0H21.24m0 0H1.688c-.313 0-.614-.126-.837-.353A1.23 1.23 0 0 1 .5 12.01c0-.325.127-.635.35-.862.224-.227.525-.354.838-.354h20.744m-1.193 2.432 1.193-2.432m0 0-.836-.85m.836.85-.836-.85m0 0L14.35 2.578m7.245 7.366L14.35 2.578m0 0a1.23 1.23 0 0 1-.35-.863m.35.863-.35-.863m0 0c0-.325.127-.635.35-.862l-.35.862Z"/></svg>