<svg xmlns="http://www.w3.org/2000/svg" width="134" height="78" fill="none"><path fill="#E7742E" d="M124.536 33.13V27h-22.504c-4.698 0-6.815 2.906-7.163 5.724v.087V27h-6.612v6.13h36.279ZM94.84 35.34l-6.612-.378v7.06c0 2.209-1.102 2.877-4.93 2.877H78.02c-3.161 0-4.495-.9-4.495-2.876v-7.729l-6.699-.494v8.775h-.145c-.377-2.557-1.334-5.52-7.714-5.957L38 35.223c0 3.225 2.291 5.143 5.887 5.52l14.616 1.482c1.16.087 2.001.436 2.001 1.395 0 1.046-.87 1.162-2.204 1.162H37.739v-9.56l-6.699-.435V51h27.289c6.09 0 8.033-3.167 8.323-5.811h.145C67.551 49.373 71.205 51 77.382 51h6.815c7.221 0 10.643-2.208 10.643-7.38v-8.281Zm21.257 1.25-20.967-1.25c0 3.225 2.117 5.375 5.713 5.666l14.935 1.162c1.16.087 1.856.378 1.856 1.337 0 .9-.812 1.249-2.494 1.249H94.782V51h20.793c6.554 0 9.425-2.295 9.425-7.525 0-4.707-2.581-6.48-8.903-6.887ZM66.826 27h6.699v6.13h-6.699V27Zm-39.469 7.496-7.279-.726L9 51h8.149l10.208-16.504ZM65.608 27H45.163c-4.756 0-6.844 2.964-7.337 5.811V27H26.487c-1.595 0-2.349.494-3.103 1.598l-3.132 4.533h45.356V27Z"/></svg>