<svg xmlns="http://www.w3.org/2000/svg" width="92" height="92" fill="none"><g fill="#E7742E" clip-path="url(#a)"><path d="M47.07 6.428a2.862 2.862 0 0 0-2.14 0L10.614 20.22l13.823 5.552 35.386-14.219-12.754-5.125Zm20.492 8.24L32.178 28.885 46 34.44l35.385-14.22-13.823-5.552Zm18.688 9.821L48.875 39.512v45.77L86.25 70.262V24.489Zm-43.125 60.8V39.506L5.75 24.489v45.778l37.375 15.022ZM42.797 1.06a8.587 8.587 0 0 1 6.406 0l40.992 16.478c.533.214.99.584 1.311 1.062.322.478.494 1.042.494 1.619v50.047a5.798 5.798 0 0 1-.99 3.238 5.756 5.756 0 0 1-2.627 2.123L47.07 92.234a2.863 2.863 0 0 1-2.14 0L3.623 75.628a5.755 5.755 0 0 1-2.63-2.122A5.797 5.797 0 0 1 0 70.266V20.22c0-.577.172-1.141.494-1.619a2.878 2.878 0 0 1 1.312-1.062L42.797 1.06Z"/><path d="M77.8 42.908a3.527 3.527 0 0 0-4.803 1.374L66.44 56.103l-3.752-3.76a3.533 3.533 0 0 0-3.878-.816 3.53 3.53 0 0 0-1.932 1.935 3.544 3.544 0 0 0 .816 3.885l7.063 7.076a3.523 3.523 0 0 0 2.497 1.038l.49-.035a3.529 3.529 0 0 0 2.597-1.785l8.83-15.921a3.543 3.543 0 0 0-1.371-4.812Z"/></g><defs><clipPath id="a"><path fill="#fff" d="M0 0h92v92H0z"/></clipPath></defs></svg>