<svg xmlns="http://www.w3.org/2000/svg" width="16" height="26" fill="none"><path fill="#E7742E" d="M13 0a3.04 3.04 0 0 1 2.121.857c.563.548.879 1.292.879 2.068v20.15c0 .776-.316 1.52-.879 2.068A3.04 3.04 0 0 1 13 26H3a3.04 3.04 0 0 1-2.121-.857A2.888 2.888 0 0 1 0 23.075V2.925C0 2.15.316 1.405.879.857A3.04 3.04 0 0 1 3 0h10Zm0 1.95H3c-.265 0-.52.103-.707.286a.963.963 0 0 0-.293.69v20.15c0 .537.448.974 1 .974h10c.265 0 .52-.103.707-.285a.963.963 0 0 0 .293-.69V2.925a.963.963 0 0 0-.293-.69A1.013 1.013 0 0 0 13 1.95Zm-3.335 18.2c.266 0 .52.102.708.285.188.182.293.43.294.689a.963.963 0 0 1-.292.69 1.013 1.013 0 0 1-.707.286l-3.333.005c-.266 0-.52-.102-.708-.284a.963.963 0 0 1-.294-.69c0-.258.105-.506.292-.69.188-.182.442-.285.707-.286l3.333-.005Z"/></svg>