<svg xmlns="http://www.w3.org/2000/svg" width="134" height="78" fill="none"><path fill="#E7742E" d="m64.62 30.556-8.446 6.497c-.866-3.25-3.683-5.632-7.148-5.632h-6.063v14.943h6.063c3.465 0 6.497-2.383 7.146-5.632l8.447 6.497 8.446-6.497v5.632h9.528V43.33h-6.28v-11.91h-3.465v5.63l-8.013 6.498-1.733-1.517 3.9-3.032 4.113-3.249-2.381-1.947-8.013 6.279-1.733-1.517 8.013-6.063-2.383-1.948h.001Zm-18.408 3.896h2.599c.541 0 1.07.123 1.557.346.487.224.932.548 1.311.954.38.406.691.892.908 1.44.216.549.337 1.159.337 1.808a4.94 4.94 0 0 1-.308 1.716c-.2.538-.49 1.032-.855 1.452-.366.42-.805.765-1.303 1.005a3.761 3.761 0 0 1-1.647.374h-2.6v-9.095Zm47.21 8.88v3.032h-9.529V31.421h3.465v11.91h6.064v.001ZM67 5C48.376 5 33 20.376 33 39c0 18.624 15.16 34 34 34s34-15.16 34-34S85.624 5 67 5Zm0 3.466c2.111 0 4.171.212 6.161.618a30.342 30.342 0 0 1 10.924 4.59 30.595 30.595 0 0 1 8.242 8.241 30.348 30.348 0 0 1 4.59 10.924c.405 1.99.617 4.05.617 6.161a30.78 30.78 0 0 1-.618 6.161 30.339 30.339 0 0 1-4.59 10.924 30.595 30.595 0 0 1-8.241 8.242 30.348 30.348 0 0 1-10.924 4.59 30.78 30.78 0 0 1-6.161.617 30.78 30.78 0 0 1-6.161-.618 30.133 30.133 0 0 1-5.737-1.774 30.535 30.535 0 0 1-13.428-11.055 30.356 30.356 0 0 1-4.59-10.924 30.776 30.776 0 0 1-.618-6.16c0-2.112.212-4.172.618-6.161a30.349 30.349 0 0 1 4.589-10.924 30.562 30.562 0 0 1 13.428-11.055 30.357 30.357 0 0 1 5.738-1.776 30.774 30.774 0 0 1 6.16-.618L67 8.466Z"/></svg>