<svg xmlns="http://www.w3.org/2000/svg" width="88" height="79" fill="none"><path fill="#E7742E" d="M10.458 16c4.426 0 8-3.575 8-8 0-4.426-3.574-8-8-8a7.99 7.99 0 0 0-8 8c.085 4.425 3.66 8 8 8ZM10.458 60c4.426 0 8-3.575 8-8s-3.574-8-8-8a7.99 7.99 0 0 0-8 8c.085 4.425 3.66 8 8 8ZM76.913 16c4.426 0 8-3.575 8-8 0-4.426-3.574-8-8-8a7.99 7.99 0 0 0-8 8c.085 4.425 3.66 8 8 8Z"/><path fill="#E7742E" d="M88 34.52V21.678C88 19.126 86.122 17 83.818 17H71.015c-2.305 0-4.183 2.126-4.183 4.678v3.232l-6.828 6.803a3.55 3.55 0 0 0-1.366-.255H30.13c-.598 0-1.11.17-1.536.34l-7.426-6.718v-3.402c0-2.552-1.878-4.678-4.183-4.678H4.182C1.878 17 0 19.126 0 21.678V34.52c0 .17.085.255.085.425h20.997c0-.17.086-.255.086-.425v-5.954L26.8 33.67a3.326 3.326 0 0 0-.341 1.531v16.84c0 .595.17 1.19.427 1.7l-6.573 9.1c-.768-1.105-1.963-1.785-3.243-1.785H4.268c-2.305 0-4.183 2.126-4.183 4.678v12.842c0 .17.086.255.086.425h20.997c0-.17.085-.255.085-.425V65.988l7.597-10.546a4 4 0 0 0 1.45.255H58.81a3.55 3.55 0 0 0 1.366-.255l6.913 9.27c-.085.34-.085.595-.085.935V78.49c0 .17.085.255.085.425h20.827c0-.17.085-.255.085-.425V65.647c0-2.551-1.878-4.677-4.182-4.677H71.015c-1.11 0-2.049.425-2.817 1.19l-6.316-8.42c.256-.51.512-1.105.512-1.785V35.2c0-.68-.17-1.19-.427-1.786l4.865-4.848v5.954c0 .17.086.255.086.425h20.997c.085-.17.085-.255.085-.425Z"/><path fill="#E7742E" d="M68.998 52c0 4.425 3.574 8 8 8 4.425 0 8-3.575 8-8s-3.575-8-8-8a7.99 7.99 0 0 0-8 8Z"/><path fill="#fff" d="M34.744 39.125H31v8.75h1.69V45.35h2.054c2.392 0 3.874-1.188 3.874-3.113 0-1.937-1.482-3.112-3.874-3.112Zm-.078 4.85H32.69V40.5h1.976c1.482 0 2.249.638 2.249 1.737 0 1.1-.767 1.738-2.249 1.738ZM48.08 47.875 45.987 45c1.235-.462 1.937-1.438 1.937-2.763 0-1.937-1.482-3.112-3.874-3.112h-3.744v8.75h1.69v-2.55h2.054c.117 0 .234 0 .35-.013l1.86 2.563h1.82Zm-1.86-5.638c0 1.1-.766 1.75-2.248 1.75h-1.976V40.5h1.976c1.482 0 2.249.638 2.249 1.737ZM54.066 48c2.82 0 4.9-1.9 4.9-4.5s-2.08-4.5-4.9-4.5c-2.822 0-4.902 1.913-4.902 4.5 0 2.587 2.08 4.5 4.901 4.5Zm0-1.425c-1.834 0-3.199-1.288-3.199-3.075 0-1.788 1.366-3.075 3.199-3.075 1.832 0 3.197 1.288 3.197 3.075 0 1.788-1.364 3.075-3.197 3.075Z"/></svg>