<svg xmlns="http://www.w3.org/2000/svg" width="134" height="78" fill="none"><path fill="#E7742E" fill-rule="evenodd" d="M67 5c18.778 0 34 15.222 34 34 0 18.777-15.222 34-34 34-.338 0-.675-.007-1.01-.016l6.948-19.096h9.563c1.678 0 3.52-1.29 4.094-2.868l7.538-20.706c1.234-3.389-.707-6.163-4.314-6.163H76.552l-11.13 30.586h-.006l-6.31 17.34C44.137 68.517 33 55.059 33 39c0-15.596 10.502-28.74 24.82-32.745l-6.51 17.896h-.002L40.483 53.888h7.206l9.206-25.269h5.416l-9.206 25.269 7.203.001 8.578-23.575c1.234-3.389-.708-6.163-4.311-6.163h-6.058l6.955-19.115A33.31 33.31 0 0 1 67 5Zm15.16 23.601h5.413l-7.582 20.802h-5.413l7.581-20.802Z" clip-rule="evenodd"/></svg>