<svg xmlns="http://www.w3.org/2000/svg" width="134" height="78" fill="none"><g clip-path="url(#a)"><path fill="#E7742E" fill-rule="evenodd" d="M18.392 47.805a.132.132 0 0 1-.036.157h.001a.15.15 0 0 1-.176.026c-1.831-.9-9.703-4.882-12.953-8.037a6.229 6.229 0 0 1-2.16-4.251c-.265-3.532 3.461-7.051 3.461-7.051a96.838 96.838 0 0 1 11.863 19.156Zm-1.317 2.77c.03.021.053.052.065.086l-.012.002s.035.07-.064.16v.004c-1.27.913-5.17 3.62-6.891 4.049-2.48.6-4.888-1.358-6.308-3.882l13.106-.455v.003c.037 0 .073.011.104.033Zm.212-1.277s.114.09.05.19h-.002a.175.175 0 0 1-.135.09l-.162.002c-2.245.01-9.476.041-9.667.004a8.044 8.044 0 0 1-2.507-.549 7.744 7.744 0 0 1-4.132-3.89 7.693 7.693 0 0 1-.356-5.651s11.169 5.937 16.912 9.8l-.002.004Zm-1.19-25.884s1.54-.348 2.11-.399L18.21 23s3.862 4.99 1.978 23.758h-.002a.16.16 0 0 1-.122.163s-.071.032-.158-.055c-1.222-1.763-6.923-10.171-8.08-15.286a7.944 7.944 0 0 1-.018-4.138 6.069 6.069 0 0 1 4.29-4.028Zm6.636 23.432a.15.15 0 0 1-.189.07v-.001a.154.154 0 0 1-.102-.143h-.002c-1.89-18.78 1.996-23.758 1.996-23.758 1.061.149 2.063.4 2.063.4a6.094 6.094 0 0 1 2.692 1.454 6.057 6.057 0 0 1 1.64 2.574 8.581 8.581 0 0 1-.022 4.138c-1.151 5.093-6.816 13.454-8.075 15.266Zm2.764 3.807c.02-.084.148-.1.148-.1l.003-.006 13.122.457c-2.942 5.032-6.33 3.883-6.33 3.883-1.838-.5-5.64-3.16-6.891-4.057a.188.188 0 0 1-.052-.177Zm-.139-1.368c5.762-3.87 16.903-9.82 16.903-9.82v-.002a7.857 7.857 0 0 1-.293 5.552 7.673 7.673 0 0 1-4.22 4.018 7.865 7.865 0 0 1-2.255.518l-10.065.025v-.002c-.08 0-.135-.098-.135-.098a.178.178 0 0 1 .065-.19Zm-.874-1.297a.168.168 0 0 1-.179-.013h.015a.18.18 0 0 1-.036-.21h-.004A96.755 96.755 0 0 1 36.123 28.66s3.682 3.38 3.446 7.032a6.279 6.279 0 0 1-2.16 4.27c-3.235 3.139-11.049 7.094-12.925 8.026Zm24.235-2.222h3.127v-5.719h6.957v5.717h3.127v-13.66h-3.127v5.535h-6.957v-5.535h-3.127v13.662Zm22.232-2.059c-2.585 0-3.35-1.006-3.35-3.422l-.015-8.182h-3.105v8.258c0 1.73.169 2.933.853 3.668 1.22 1.336 3.02 1.886 5.605 1.886 2.584 0 4.362-.55 5.587-1.886a5.398 5.398 0 0 0 .868-3.668v-8.258h-3.125v8.182c0 2.406-.732 3.422-3.318 3.422Zm22.993 2.057-6.33-13.661H84.3l-6.285 13.661h3.322l1.323-3.255h6.458l1.365 3.255h3.462Zm-5.853-5.688h-4.429l2.174-5.25 2.255 5.25Zm22.427 5.688 4.595-13.66-3.183.014-3.207 10.502-3.329-10.502h-3.684L98.813 42.62l-3.446-10.502h-3.356l4.948 13.66h3.809l2.77-10.198 3.152 10.184h3.828Zm17.461-8.106h-8.649l-.011-.01c.127-2.15 1.265-3.175 3.516-3.173h5.13v-2.381h-5.19c-4.78 0-6.994 2.248-6.994 7.076a6.227 6.227 0 0 0 2.274 5.384 7.054 7.054 0 0 0 4.635 1.199h5.276v-2.38h-5.13c-2.463 0-3.518-.892-3.535-3.346h8.678v-2.369ZM134 32.104h-3.267v13.662H134V32.104Z" clip-rule="evenodd"/></g><defs><clipPath id="a"><path fill="#fff" d="M0 0h134v78H0z"/></clipPath></defs></svg>