<svg xmlns="http://www.w3.org/2000/svg" width="126" height="76" fill="none"><path fill="#E7742E" d="M104.143 0H21.857C18.086 0 15 3.06 15 6.8v54.4c0 3.74 3.086 6.8 6.857 6.8h82.286c3.771 0 6.857-3.06 6.857-6.8V6.8c0-3.74-3.086-6.8-6.857-6.8Zm3.428 61.2H18.429V3.4h89.142v57.8ZM125.189 74c-1.9 1.08-6.564 2-10.365 2H11.176c-3.8 0-8.465-.92-10.365-2-1.9-1.08-.345-2 3.455-2h117.468c3.8 0 5.355.92 3.455 2Z"/><path fill="#E7742E" d="M87.926 30.12c-.165-2.21-2.061-3.94-4.326-3.94h-.883a19.669 19.669 0 0 0-1.676-4.014l.626-.626c1.583-1.583 1.712-4.16.276-5.836a22.577 22.577 0 0 0-2.65-2.651c-1.676-1.436-4.253-1.308-5.836.276l-.626.626a21.766 21.766 0 0 0-4.014-1.676v-.883c0-2.247-1.73-4.143-3.94-4.327a25.572 25.572 0 0 0-3.755 0c-2.209.166-3.94 2.062-3.94 4.327v.883c-1.399.405-2.742.976-4.013 1.676l-.626-.626c-1.583-1.584-4.16-1.712-5.835-.276a22.545 22.545 0 0 0-2.651 2.65c-1.436 1.676-1.307 4.254.276 5.837l.626.626a21.769 21.769 0 0 0-1.676 4.014H42.4c-2.246 0-4.142 1.73-4.326 3.94A21.353 21.353 0 0 0 38 31.998c0 .626.018 1.252.074 1.878.165 2.209 2.062 3.94 4.326 3.94h.883c.405 1.399.976 2.743 1.676 4.013l-.626.626c-1.583 1.584-1.712 4.161-.276 5.837a22.546 22.546 0 0 0 2.65 2.65c1.676 1.437 4.253 1.308 5.836-.275l.626-.626c1.289.7 2.633 1.252 4.014 1.675v.884c0 2.246 1.73 4.142 3.94 4.326.625.056 1.251.074 1.877.074.626 0 1.252-.018 1.878-.074 2.209-.165 3.94-2.062 3.94-4.326v-.884c1.398-.405 2.742-.976 4.013-1.675l.626.626c1.583 1.583 4.16 1.712 5.835.276a22.576 22.576 0 0 0 2.651-2.651c1.436-1.676 1.307-4.253-.276-5.837l-.626-.626a21.769 21.769 0 0 0 1.675-4.013h.884c2.246 0 4.142-1.731 4.326-3.94.056-.626.074-1.252.074-1.878 0-.626-.018-1.252-.074-1.878Zm-2.761 3.535c-.055.773-.755 1.38-1.565 1.38H81.65c-.645 0-1.197.442-1.344 1.068a17.581 17.581 0 0 1-2.173 5.23c-.33.552-.257 1.251.203 1.693l1.38 1.38c.572.572.627 1.492.13 2.081a23.76 23.76 0 0 1-1.123 1.215c-.387.387-.792.774-1.215 1.123-.59.516-1.51.442-2.08-.128l-1.381-1.381a1.37 1.37 0 0 0-1.694-.203 17.863 17.863 0 0 1-5.228 2.173c-.626.147-1.068.7-1.068 1.344v1.97c0 .81-.608 1.51-1.38 1.565-1.105.092-2.21.092-3.314 0-.774-.056-1.381-.755-1.381-1.565v-1.952c0-.644-.442-1.197-1.068-1.344a17.581 17.581 0 0 1-5.228-2.172 1.29 1.29 0 0 0-.718-.203c-.35 0-.718.147-.976.405l-1.38 1.381c-.571.57-1.492.626-2.08.129a23.714 23.714 0 0 1-1.216-1.123 17.558 17.558 0 0 1-1.123-1.215c-.515-.59-.442-1.51.13-2.08l1.38-1.382c.46-.46.534-1.16.202-1.694a17.867 17.867 0 0 1-2.172-5.228 1.379 1.379 0 0 0-1.344-1.068h-1.951c-.81 0-1.51-.608-1.565-1.38-.037-.553-.074-1.106-.074-1.658 0-.552.019-1.105.074-1.657.055-.773.755-1.38 1.565-1.38h1.951c.644 0 1.197-.443 1.344-1.069a17.58 17.58 0 0 1 2.172-5.228c.332-.553.258-1.252-.202-1.694l-1.38-1.381c-.572-.57-.627-1.491-.13-2.08.368-.424.737-.829 1.123-1.216.387-.386.792-.773 1.215-1.123.59-.515 1.51-.442 2.08.13l1.381 1.38c.46.46 1.16.534 1.694.203a17.865 17.865 0 0 1 5.228-2.173 1.379 1.379 0 0 0 1.068-1.344v-1.952c0-.81.607-1.51 1.38-1.564a19.916 19.916 0 0 1 3.314 0c.773.055 1.381.754 1.381 1.564v1.952c0 .644.442 1.197 1.068 1.344a17.576 17.576 0 0 1 5.228 2.173c.552.331 1.252.257 1.694-.203l1.38-1.38c.571-.572 1.492-.627 2.08-.13.424.369.83.737 1.216 1.123.386.387.773.792 1.123 1.216.515.589.442 1.51-.13 2.08l-1.38 1.38a1.37 1.37 0 0 0-.203 1.695c.995 1.62 1.731 3.369 2.173 5.228.147.626.7 1.068 1.344 1.068H83.6c.81 0 1.51.608 1.565 1.381.037.552.074 1.105.074 1.657s-.019 1.086-.074 1.639Z"/><path fill="#E7742E" d="m50.61 27.69 8.138 4.068a6.728 6.728 0 0 0-.037.608 4.333 4.333 0 0 0 4.326 4.327 4.333 4.333 0 0 0 4.326-4.327c0-.7-.166-1.344-.46-1.933l7.419-7.42a1.39 1.39 0 0 0 0-1.952 1.389 1.389 0 0 0-1.951 0l-7.42 7.42a4.275 4.275 0 0 0-1.932-.46c-1.197 0-2.265.497-3.056 1.27l-8.137-4.069a1.404 1.404 0 0 0-1.86.626 1.37 1.37 0 0 0 .645 1.841Zm10.844 4.694c0-.865.7-1.565 1.565-1.565s1.564.7 1.564 1.565a1.563 1.563 0 1 1-3.13 0ZM63 20.104a1.39 1.39 0 0 0 1.38-1.38V17.25A1.39 1.39 0 0 0 63 15.87a1.39 1.39 0 0 0-1.38 1.38v1.474c0 .754.625 1.38 1.38 1.38ZM63 43.91a1.39 1.39 0 0 0-1.38 1.38v1.473c0 .755.625 1.381 1.38 1.381a1.39 1.39 0 0 0 1.38-1.38V45.29c0-.773-.607-1.38-1.38-1.38ZM77.764 30.617h-1.472a1.39 1.39 0 0 0-1.381 1.381c0 .755.626 1.38 1.38 1.38h1.473a1.39 1.39 0 0 0 1.381-1.38 1.39 1.39 0 0 0-1.38-1.38ZM49.727 30.617h-1.473a1.39 1.39 0 0 0-1.38 1.381c0 .755.625 1.38 1.38 1.38h1.473a1.39 1.39 0 0 0 1.38-1.38 1.39 1.39 0 0 0-1.38-1.38Z"/></svg>