<svg xmlns="http://www.w3.org/2000/svg" width="134" height="78" fill="none"><path fill="#E7742E" fill-rule="evenodd" d="M8.588 46.683h12.529v4.981H3V26h5.588v20.683Zm19.546-8.823c.938-1.24 2.434-1.968 4.24-1.968 1.986 0 3.493 1.116 4.272 2.764l-9.63 3.932c-.264-2.018.261-3.596 1.118-4.728Zm10.59 7.73c-2.32 1.69-3.646 2.093-5.761 2.093-1.904 0-3.395-.582-4.446-1.602l14.093-5.754c-.308-2.144-1.135-4.059-2.407-5.515-1.852-2.117-4.592-3.236-7.93-3.236-6.06 0-10.631 4.4-10.631 10.212 0 5.963 4.581 10.212 11.24 10.212 3.73 0 7.544-1.74 9.328-3.773l-3.486-2.637Zm11.378-10.848c1.606-2.11 4.235-3.165 6.546-3.165 4.85 0 8.153 3.297 8.153 7.84v12.247H59.29V40.423c0-2.613-2.36-4.174-4.641-4.174-2.952 0-4.546 2.15-4.546 4.174v11.241h-5.511V31.91h5.512v2.833Zm48.895 10.624 4.983-13.457h6.296l-8.26 19.75h-6.04l-8.26-19.75h6.297l4.984 13.457Zm21.178-9.142c-3.079 0-5.314 2.296-5.314 5.562 0 3.118 2.368 5.562 5.388 5.562 3.079 0 5.313-2.36 5.313-5.562 0-3.118-2.366-5.562-5.387-5.562Zm0 15.773c-6.029 0-10.753-4.42-10.753-10.21 0-5.726 4.757-10.211 10.827-10.211 6.028 0 10.751 4.42 10.751 10.21 0 5.724-4.755 10.21-10.825 10.21Zm-47.754-10.21c0-3.267 2.234-5.563 5.312-5.563 3.021 0 5.388 2.444 5.388 5.562 0 3.203-2.234 5.562-5.313 5.562-3.02 0-5.387-2.444-5.387-5.562Zm-5.439 0c0 5.79 4.723 10.21 10.751 10.21 6.07 0 10.827-4.486 10.827-10.21 0-5.792-4.724-10.211-10.752-10.211-6.07 0-10.826 4.485-10.826 10.21Z" clip-rule="evenodd"/></svg>