<svg xmlns="http://www.w3.org/2000/svg" width="68" height="86" fill="none"><path fill="#E7742E" d="M25.597 19h16.827c.862 0 1.576-.68 1.576-1.5s-.714-1.5-1.576-1.5H25.576c-.862 0-1.576.68-1.576 1.5s.714 1.5 1.597 1.5ZM53.813 72.94h2.733c.795 0 1.454-.691 1.454-1.524 0-.832-.698-1.502-1.493-1.502h-2.733c-1.628 0-3.16.67-4.322 1.868l-1.61 1.685-5.97-4.873a1.505 1.505 0 0 0-1.163-.305c-.407.082-.756.346-.988.711l-1.028 1.807-2.655-5.015A1.506 1.506 0 0 0 34.797 65c-.523 0-1.008.264-1.28.731l-3.295 5.767c-.581 1.015-1.628 1.624-2.752 1.624h-2.016c-.795 0-1.454.69-1.454 1.523 0 .832.66 1.523 1.454 1.523h2.016c2.132 0 4.148-1.199 5.253-3.107l2.016-3.513 2.656 5.016c.252.467.736.771 1.24.791.523 0 1.008-.264 1.28-.73l1.492-2.6 5.699 4.65c.271.224.582.325.892.325.368 0 .756-.142 1.027-.447"/><path fill="#E7742E" d="M68 17.188c0-1.255-.486-2.43-1.398-3.306L53.882 1.374A4.812 4.812 0 0 0 50.518 0H3.16C1.418 0 .02 1.394.02 3.087L0 82.913C0 84.626 1.418 86 3.14 86h61.68c1.722 0 3.14-1.374 3.14-3.087V27.565H68V17.188ZM51.755 3.505l12.68 12.448h-12.58c-.06 0-.1-.04-.1-.1V3.506ZM64.82 83.032H45.597c-.081-.02-.162-.02-.243-.02H3.16c-.06 0-.101-.04-.101-.1V3.088c0-.06.04-.1.101-.1h45.556v12.867c0 1.713 1.418 3.087 3.14 3.087H64.92v63.992c0 .06-.04.1-.101.1Z"/><path fill="#E7742E" d="M14.465 27.722c-.8 0-1.465.68-1.465 1.5s.645 1.5 1.465 1.5H23v-3h-8.535ZM14.465 35.722c-.8 0-1.465.68-1.465 1.5s.645 1.5 1.465 1.5H23v-3h-8.535ZM14.465 43.722c-.8 0-1.465.68-1.465 1.5s.645 1.5 1.465 1.5H23v-3h-8.535ZM14.465 51.722c-.8 0-1.465.68-1.465 1.5s.645 1.5 1.465 1.5H23v-3h-8.535ZM53.53 30.722c.803 0 1.47-.68 1.47-1.5s-.667-1.5-1.47-1.5H45v3h8.53ZM53.53 38.722c.803 0 1.47-.68 1.47-1.5s-.667-1.5-1.47-1.5H45v3h8.53ZM53.53 46.722c.803 0 1.47-.68 1.47-1.5s-.667-1.5-1.47-1.5H45v3h8.53ZM53.53 54.722c.803 0 1.47-.68 1.47-1.5s-.667-1.5-1.47-1.5H45v3h8.53ZM37.89 27.023c-.186 0-.371.04-.538.12-.26.06-.52.199-.724.418l-8.835 9.413c-.557.597-.557 1.592 0 2.189a1.372 1.372 0 0 0 2.041 0l6.645-7.065v21.373c0 .836.65 1.552 1.448 1.552.78 0 1.448-.676 1.448-1.552V28.556c-.056-.836-.706-1.533-1.485-1.533Z"/></svg>