<svg xmlns="http://www.w3.org/2000/svg" width="134" height="78" fill="none"><path fill="#E7742E" fill-rule="evenodd" d="M34.552 65c14.112 0 25.551-11.645 25.551-25.998C60.103 24.639 48.664 13 34.552 13 20.439 13 9 24.64 9 39.002 9 53.355 20.44 65 34.552 65Zm-1.015-37.414V50.38h7.117v-2.036h-5.088V27.586h-2.029Zm-4.076 3.11c0 1.714-1.375 3.114-3.067 3.114-1.686 0-3.062-1.4-3.062-3.115 0-1.718 1.376-3.115 3.062-3.115 1.692 0 3.067 1.397 3.067 3.115Zm6.105-13.45a28.342 28.342 0 0 0-1.014-.016c-11.786 0-21.38 9.762-21.38 21.762 0 5.81 2.213 11.275 6.25 15.383 4.052 4.116 9.425 6.38 15.13 6.38 5.707 0 11.08-2.264 15.127-6.38 4.036-4.108 6.255-9.572 6.255-15.383v-.989H40.669v2.025h13.236v.29c-.68 10.262-9.103 18.4-19.353 18.4-5.175 0-10.04-2.05-13.706-5.774-3.664-3.727-5.68-8.683-5.68-13.952 0-5.265 2.016-10.224 5.68-13.951 3.666-3.731 8.53-5.78 13.706-5.78.234 0 .782.006 1.014.012v-2.028Zm76.189 25.75h6.216v5.874c-1.147.448-3.381.889-5.509.889-6.867 0-9.157-3.55-9.157-10.757 0-6.877 2.179-10.926 9.046-10.926 3.82 0 5.999 1.219 7.796 3.547l4.745-4.435c-2.89-4.215-7.96-5.49-12.701-5.49-10.687 0-16.3 5.93-16.3 17.245 0 11.263 5.069 17.364 16.243 17.364 5.123 0 10.142-1.332 12.866-3.274V36.729h-13.245v6.267ZM80.959 55.808h14.004V49.26h-15.81V22.198h-7.626v33.61h9.432Z" clip-rule="evenodd"/></svg>