<svg xmlns="http://www.w3.org/2000/svg" width="1000" height="368"><svg xmlns="http://www.w3.org/2000/svg" xmlns:xlink="http://www.w3.org/1999/xlink" width="1000" height="368" data-background-color="#ffffff" transform="translate(-.606 -.425)" viewBox="0 0 396 146"><svg width="395.52" height="145.662" transform="translate(.24 .169)" viewBox="0 0 395.52 145.662"><svg width="395.52" height="145.662" viewBox="0 0 654.918 241.194"><svg width="395.52" height="137.418" transform="translate(0 51.888)" viewBox="0 0 395.52 137.418"><svg width="395.52" height="137.418" viewBox="0 0 395.52 137.418"><svg width="395.52" height="137.418" viewBox="0 0 395.52 137.418"><svg width="395.52" height="137.418" data-palette-color="#e7742e" viewBox="5.25 -35.4 223.35 74.6"><svg/><svg/><path xmlns="http://www.w3.org/2000/svg" fill="#e7742e" d="M62.5.4c-3.5 0-6.657-.777-9.47-2.33-2.82-1.547-5.03-3.68-6.63-6.4-1.6-2.713-2.4-5.77-2.4-9.17 0-3.4.8-6.46 2.4-9.18 1.6-2.713 3.817-4.847 6.65-6.4 2.833-1.547 6-2.32 9.5-2.32 2.733 0 5.233.46 7.5 1.38 2.267.913 4.2 2.27 5.8 4.07L72.6-26.8c-2.633-2.767-5.917-4.15-9.85-4.15-2.6 0-4.95.583-7.05 1.75-2.1 1.167-3.74 2.773-4.92 4.82C49.593-22.327 49-20.033 49-17.5c0 2.533.593 4.823 1.78 6.87 1.18 2.053 2.82 3.663 4.92 4.83 2.1 1.167 4.45 1.75 7.05 1.75 3.9 0 7.183-1.4 9.85-4.2l3.25 3.15c-1.6 1.8-3.54 3.167-5.82 4.1C67.743-.067 65.233.4 62.5.4zm57.75-.4h-4.8l-.05-25.5-12.65 21.25h-2.3L87.8-25.35V0H83v-35h4.1l14.6 24.6L116.1-35h4.1zm36.65 0-3.85-8.75h-18.6L130.6 0h-5.15l15.85-35h4.95l15.9 35zm-20.7-12.75h15.1l-7.55-17.15zM181-35c4.533 0 8.1 1.083 10.7 3.25 2.6 2.167 3.9 5.15 3.9 8.95 0 3.8-1.3 6.783-3.9 8.95-2.6 2.167-6.167 3.25-10.7 3.25h-8.65V0h-5v-35zm-.15 20.05c3.167 0 5.583-.677 7.25-2.03 1.667-1.347 2.5-3.287 2.5-5.82 0-2.533-.833-4.477-2.5-5.83-1.667-1.347-4.083-2.02-7.25-2.02h-8.5v15.7zM208.8 0v-30.65h-12V-35h28.95v4.35h-12V0zM18.9 3.8c4.533 0 8.1 1.083 10.7 3.25 2.6 2.167 3.9 5.15 3.9 8.95 0 3.8-1.3 6.783-3.9 8.95-2.6 2.167-6.167 3.25-10.7 3.25h-8.65v10.6h-5v-35zm-.15 20.05c3.167 0 5.583-.677 7.25-2.03 1.667-1.347 2.5-3.287 2.5-5.82 0-2.533-.833-4.477-2.5-5.83-1.667-1.347-4.083-2.02-7.25-2.02h-8.5v15.7zm27.1 10.6h20.4v4.35h-25.4v-35h24.7v4.35h-19.7V18.9H63.4v4.25H45.85zm65.75 4.35h-4.8l-.05-25.5L94.1 34.55h-2.3l-12.65-21.1V38.8h-4.8v-35h4.1l14.6 24.6 14.4-24.6h4.1zm26.3.4c-3.533 0-6.717-.777-9.55-2.33-2.833-1.547-5.06-3.687-6.68-6.42-1.613-2.733-2.42-5.783-2.42-9.15s.807-6.417 2.42-9.15c1.62-2.733 3.847-4.877 6.68-6.43 2.833-1.547 6.017-2.32 9.55-2.32 3.5 0 6.667.773 9.5 2.32 2.833 1.553 5.05 3.687 6.65 6.4 1.6 2.72 2.4 5.78 2.4 9.18 0 3.4-.8 6.457-2.4 9.17-1.6 2.72-3.817 4.853-6.65 6.4-2.833 1.553-6 2.33-9.5 2.33zm0-4.45c2.567 0 4.873-.583 6.92-1.75a12.864 12.864 0 0 0 4.86-4.83c1.18-2.047 1.77-4.337 1.77-6.87 0-2.533-.59-4.827-1.77-6.88a12.88 12.88 0 0 0-4.86-4.82c-2.047-1.167-4.353-1.75-6.92-1.75s-4.893.583-6.98 1.75a12.797 12.797 0 0 0-4.9 4.82c-1.18 2.053-1.77 4.347-1.77 6.88 0 2.533.59 4.823 1.77 6.87a12.78 12.78 0 0 0 4.9 4.83c2.087 1.167 4.413 1.75 6.98 1.75zM189.2 3.8h5v35h-5V23.2h-20.1v15.6h-5v-35h5v15.05h20.1zm22.45 35V8.15h-12V3.8h28.95v4.35h-12V38.8z" class="wordmark-text-0" data-fill-palette-color="primary" font-family="none" font-size="none" font-weight="none" style="mix-blend-mode:normal" text-anchor="none"/></svg></svg></svg></svg><svg width="244.431" height="241.194" transform="translate(410.486)" viewBox="0 0 244.431 241.194"><svg xmlns="http://www.w3.org/2000/svg" xmlns:xlink="http://www.w3.org/1999/xlink" xml:space="preserve" width="244.431" height="241.194" class="icon-icon-0" data-fill-palette-color="accent" viewBox="0.338 1.149 99.352 98.036"><path fill="#e8772e" d="M30.388 45.532a5.482 5.482 0 0 0-5.477 5.477 5.482 5.482 0 0 0 5.477 5.476 5.48 5.48 0 0 0 5.475-5.476 5.48 5.48 0 0 0-5.475-5.477zm0 8.109a2.636 2.636 0 0 1-2.633-2.632 2.636 2.636 0 0 1 2.633-2.633 2.636 2.636 0 0 1 2.632 2.633 2.636 2.636 0 0 1-2.632 2.632z" data-fill-palette-color="accent"/><path fill="#e8772e" d="m42.179 47.657-2.135-.525a17.005 17.005 0 0 0-.131-.293l1.078-1.811a1.422 1.422 0 0 0-.217-1.733l-2.665-2.658a1.425 1.425 0 0 0-1.724-.221l-1.835 1.077a9.258 9.258 0 0 0-.302-.139l-.521-2.146a1.423 1.423 0 0 0-1.382-1.085h-3.759a1.42 1.42 0 0 0-1.382 1.085l-.503 2.071a7.639 7.639 0 0 0-.405.171l-1.704-1.003a1.421 1.421 0 0 0-1.73.223l-2.657 2.675a1.422 1.422 0 0 0-.212 1.732l.958 1.6a9.06 9.06 0 0 0-.255.558l-1.944.482a1.418 1.418 0 0 0-1.08 1.378v3.759c0 .654.447 1.225 1.082 1.382l1.906.467c.078.194.163.393.256.592l-.959 1.611a1.424 1.424 0 0 0 .218 1.734l2.664 2.657a1.42 1.42 0 0 0 1.746.206l1.624-.992c.187.087.385.176.594.259l.463 1.862a1.42 1.42 0 0 0 1.379 1.079h3.758c.654 0 1.222-.445 1.38-1.082l.49-1.971c.158-.067.315-.139.477-.217l1.722 1.037c.561.337 1.276.25 1.737-.212l2.659-2.653c.461-.46.55-1.177.213-1.736l-1.116-1.862c.05-.109.098-.22.145-.333l2.068-.505a1.425 1.425 0 0 0 1.083-1.381v-3.76c0-.652-.448-1.223-1.082-1.379zm-1.762 4.025-1.725.424a1.42 1.42 0 0 0-1.028.988c-.131.453-.368.93-.581 1.345-.223.437-.207.96.047 1.381l.942 1.57-1.086 1.083-1.458-.877a1.425 1.425 0 0 0-1.435-.02 7.52 7.52 0 0 1-1.446.657 1.42 1.42 0 0 0-.953 1.014l-.403 1.621h-1.535l-.383-1.536a1.424 1.424 0 0 0-1-1.027c-.445-.123-.924-.329-1.555-.67a1.416 1.416 0 0 0-1.416.039l-1.348.822-1.089-1.085.795-1.338c.259-.436.267-.974.022-1.415a7.521 7.521 0 0 1-.668-1.546 1.417 1.417 0 0 0-1.025-.983l-1.576-.387V50.21l1.599-.397a1.42 1.42 0 0 0 1.021-.97c.162-.542.453-1.092.688-1.511a1.42 1.42 0 0 0-.02-1.426l-.802-1.339 1.101-1.109 1.409.831c.425.25.948.263 1.383.034a7.633 7.633 0 0 1 1.401-.587c.49-.142.866-.534.987-1.03l.422-1.738h1.525l.434 1.787c.118.485.482.874.958 1.021.424.131.878.365 1.306.594.437.233.961.223 1.389-.027l1.562-.916 1.104 1.101-.91 1.528c-.255.43-.267.961-.029 1.4.27.502.452.917.573 1.305.149.476.535.838 1.017.958l1.784.438v1.525zM14.936 61.41a2.74 2.74 0 0 0-2.738 2.736 2.741 2.741 0 0 0 2.738 2.738 2.741 2.741 0 0 0 2.738-2.738 2.74 2.74 0 0 0-2.738-2.736zm0 4.052a1.315 1.315 0 1 1 0-2.629c.725 0 1.317.588 1.317 1.314a1.32 1.32 0 0 1-1.317 1.315z" data-fill-palette-color="accent"/><path fill="#e8772e" d="m20.832 62.471-1.068-.263a8.398 8.398 0 0 0-.065-.146l.539-.905a.71.71 0 0 0-.109-.868l-1.332-1.328a.713.713 0 0 0-.862-.111l-.918.539a2.298 2.298 0 0 0-.151-.067l-.26-1.074a.711.711 0 0 0-.69-.544h-1.879a.713.713 0 0 0-.691.544l-.252 1.035a2.693 2.693 0 0 0-.203.087l-.852-.502a.711.711 0 0 0-.864.11l-1.33 1.337a.711.711 0 0 0-.105.866l.478.803a5.55 5.55 0 0 0-.128.277l-.972.241a.71.71 0 0 0-.54.689v1.881c0 .325.223.609.542.689l.953.233c.04.097.082.196.128.297l-.479.806a.708.708 0 0 0 .109.866l1.332 1.328a.712.712 0 0 0 .873.104l.812-.498c.093.046.192.087.296.131l.232.932c.08.316.364.538.689.538h1.88c.327 0 .61-.222.689-.541l.245-.985c.078-.033.157-.07.237-.108l.862.519a.71.71 0 0 0 .868-.106l1.329-1.326a.708.708 0 0 0 .107-.868l-.558-.932c.025-.055.049-.108.072-.164l1.034-.254a.711.711 0 0 0 .541-.691v-1.88a.713.713 0 0 0-.539-.691zm-.881 2.012-.863.213a.707.707 0 0 0-.514.492 3.88 3.88 0 0 1-.29.673.714.714 0 0 0 .022.691l.471.783-.544.543-.728-.438a.71.71 0 0 0-.717-.009 3.722 3.722 0 0 1-.723.327.716.716 0 0 0-.477.509l-.202.81h-.766l-.191-.769a.71.71 0 0 0-.501-.513 3.793 3.793 0 0 1-.777-.336.715.715 0 0 0-.708.019l-.673.413-.546-.543.399-.669a.71.71 0 0 0 .009-.709 3.693 3.693 0 0 1-.333-.773.708.708 0 0 0-.514-.49L10 64.514v-.767l.8-.197a.71.71 0 0 0 .509-.486c.081-.271.227-.545.344-.756a.707.707 0 0 0-.01-.714l-.4-.669.55-.554.706.415a.704.704 0 0 0 .69.018c.261-.137.488-.231.701-.293a.715.715 0 0 0 .494-.517l.211-.868h.762l.217.892a.714.714 0 0 0 .481.513c.211.064.438.183.652.298.219.116.481.11.694-.014l.78-.458.553.549-.454.765a.708.708 0 0 0-.015.699c.135.251.226.458.287.651a.711.711 0 0 0 .509.479l.891.22v.763z" data-fill-palette-color="accent"/><circle cx="49.503" cy="82.694" r="1.6" fill="#e8772e" data-fill-palette-color="accent"/><path fill="#e8772e" d="M99.69 50.825c0-27.435-22.24-49.676-49.675-49.676S.338 23.39.338 50.825c0 23.083 15.744 42.485 37.079 48.062.26.105.573.183.941.234.287.04.605.063.967.063h.745c-.859-.002-1.555-.746-1.555-1.667 0-.208.039-.404.103-.586h-.001c.053-.159.224-.554.644-.832.089-.057.184-.108.285-.147.077-.042.15-.08.234-.123 3.525-1.194 4.776-3.41 5.742-8.53h8.929c1.023 5.061 2.274 7.279 5.799 8.53.131.064.247.125.359.186.487.303.725.812.781.951.058.172.095.355.095.552 0 .921-.695 1.665-1.555 1.667h.776c.349 0 .657-.02.937-.057a3.923 3.923 0 0 0 1.03-.258c.446-.117.888-.249 1.329-.379h.032v-.009C84.642 92.431 99.69 73.39 99.69 50.825zM28.634 84.971c-1.138 0-1.934-.572-1.934-1.766v-3.354h46.629v3.354c0 1.193-.797 1.766-1.933 1.766H28.634zm34.672 10.344c-.428-.469-1.123-.88-2.202-1.42l-.057-.056c-2.389-.797-3.412-2.047-4.379-6.597h14.729c2.33 0 4.207-1.648 4.207-4.038V52.216a4.2 4.2 0 0 0-4.207-4.209H45.836c.139.742.227 1.5.258 2.275h25.245c1.193 0 1.934.797 1.934 1.934v25.929H26.7V66.2a15.549 15.549 0 0 1-2.274-.733v17.738c0 2.332 1.876 4.038 4.208 4.038h14.727c-.966 4.55-1.989 5.8-4.378 6.597-1.113.557-1.832.979-2.27 1.474-19.157-5.72-33.124-23.471-33.124-44.489 0-25.641 20.785-46.427 46.425-46.427 25.642 0 46.427 20.787 46.427 46.427-.001 21.02-13.972 38.775-33.135 44.49z" data-fill-palette-color="accent"/></svg></svg></svg></svg></svg></svg>