<svg xmlns="http://www.w3.org/2000/svg" width="112" height="68" fill="none"><path fill="#E7742E" d="M15.35 0C4.99 0 0 6.571 0 16.762v10.19c0 9.62 3.838 15.715 12.472 15.715 5.373 0 9.019-2.477 10.842-7.048v14.952c0 7.048-2.495 10.667-8.251 10.667-5.373 0-7.963-3.524-7.963-9.524V50H.096v1.238C.096 61.428 4.989 68 15.255 68 26 68 30.797 61.333 30.797 50.762v-34C30.797 6.572 25.712 0 15.35 0Zm0 6.762c5.47 0 7.964 3.524 7.964 9.619v10c0 6-2.495 9.619-7.963 9.619-5.373 0-7.964-3.619-7.964-9.619v-10c0-6.095 2.59-9.62 7.964-9.62ZM46.5 7.333h19.763V.667h-26.48l-1.822 37.047h7.004v-1.523c.671-4.858 3.453-7.143 7.579-7.143 5.373 0 7.867 3.619 7.867 9.619v12.952c0 6-2.494 9.62-7.867 9.62-5.373 0-7.867-3.62-7.867-9.62v-4.952h-7.004v4.476C37.673 61.333 42.47 68 52.736 68 63 68 67.894 61.333 67.894 51.143V38.095c0-9.524-3.837-15.81-12.472-15.81-4.51 0-7.867 1.905-9.978 5.524L46.5 7.334ZM80.867 52c4.893 0 8.3-3.524 8.3-9.19 0-5.667-3.407-9.191-8.3-9.191-4.893 0-8.347 3.572-8.347 9.19 0 5.62 3.454 9.191 8.347 9.191Zm-2.926 15.333h5.709L106.579 34h-5.708l-22.93 33.333Zm2.926-19.238c-2.062 0-3.502-1.762-3.502-5.285 0-3.524 1.44-5.286 3.502-5.286 2.111 0 3.502 1.714 3.502 5.285 0 3.572-1.391 5.286-3.502 5.286Zm22.786 19.62c4.893 0 8.347-3.572 8.347-9.191 0-5.62-3.454-9.19-8.347-9.19-4.845 0-8.299 3.57-8.299 9.19 0 5.619 3.454 9.19 8.299 9.19Zm0-3.906c-2.063 0-3.502-1.714-3.502-5.285 0-3.572 1.439-5.286 3.502-5.286 2.111 0 3.502 1.762 3.502 5.286 0 3.524-1.391 5.285-3.502 5.285Z"/></svg>