<svg xmlns="http://www.w3.org/2000/svg" width="129" height="97" fill="none"><g clip-path="url(#a)"><g clip-path="url(#b)"><g clip-path="url(#c)"><g clip-path="url(#d)"><g clip-path="url(#e)"><g clip-path="url(#f)"><g clip-path="url(#g)"><g clip-path="url(#h)"><g clip-path="url(#i)"><path fill="#E8772E" d="M82.483 10.156H47.046c-5.129 0-9.325 3.862-9.325 8.583v66.946c0 4.72 4.196 8.582 9.325 8.582h35.437c5.13 0 9.326-3.862 9.326-8.582V18.739c0-4.72-4.197-8.583-9.326-8.583ZM64.485 89.72c-2.518 0-4.663-1.889-4.663-4.292 0-2.317 2.052-4.291 4.663-4.291s4.663 1.888 4.663 4.291c0 2.403-2.145 4.292-4.663 4.292ZM84.348 77.96H45.181V21.314h39.167V77.96Z"/></g></g></g></g></g></g></g></g></g><defs><clipPath id="a"><path fill="#fff" d="M.5 0h128v97H.5z"/></clipPath><clipPath id="b"><path fill="#fff" d="M37.443 10.368h54.643v83.688H37.443z"/></clipPath><clipPath id="c"><path fill="#fff" d="M37.72 10.156H91.81v84.111H37.72z"/></clipPath><clipPath id="d"><path fill="#fff" d="M37.72 10.156H91.81v84.111H37.72z"/></clipPath><clipPath id="e"><path fill="#fff" d="M37.72 10.156H91.81v84.111H37.72z"/></clipPath><clipPath id="f"><path fill="#fff" d="M37.72 10.156H91.81v84.111H37.72z"/></clipPath><clipPath id="g"><path fill="#fff" d="M37.72 10.156H91.81v84.111H37.72z"/></clipPath><clipPath id="h"><path fill="#fff" d="M37.72 10.156H91.81v84.111H37.72z"/></clipPath><clipPath id="i"><path fill="#fff" d="M37.72 10.156H91.81v84.111H37.72z"/></clipPath></defs></svg>