<svg xmlns="http://www.w3.org/2000/svg" width="109" height="88" fill="none"><g clip-path="url(#a)"><g clip-path="url(#b)"><g clip-path="url(#c)"><g clip-path="url(#d)"><g clip-path="url(#e)"><g clip-path="url(#f)"><g fill="#E8772E" clip-path="url(#g)"><path d="M98.19 8H10.356C4.837 8 .346 11.952.346 16.81V68.56c0 4.857 4.491 8.808 10.01 8.808h39.561c1.855 4.242 12.305 10.141 12.305 10.141v7.78h26.48V77.37h9.488c5.52 0 10.01-3.952 10.01-8.809V16.809C108.2 11.951 103.71 8 98.19 8Zm-.473 60.144h-9.015V54.711c0-3.686-6.21-3.686-6.21 0v5.378c0 .596-1.75.596-1.75 0v-9.262c0-3.685-6.268-3.685-6.268 0v9.262c0 .596-1.75.596-1.75 0V47.457c0-3.683-6.268-3.683-6.268 0V60.09c0 .596-1.75.596-1.75 0V34.456c0-3.676-6.267-3.676-6.267 0v32.686c0 .647-1.976.647-1.976 0V54.845c0-4.474-6.832-4.275-6.832 0v13.3H10.828v-50.92h86.887v50.92h.002Zm5.245-23.626c-1.129 0-2.044-.805-2.044-1.797 0-.994.915-1.8 2.044-1.8 1.13 0 2.045.806 2.045 1.8 0 .992-.915 1.797-2.045 1.797Z"/><path d="M55.276 40.247c1.013 0 1.834-.723 1.834-1.614 0-.892-.821-1.614-1.834-1.614-1.014 0-1.835.722-1.835 1.614 0 .891.821 1.614 1.834 1.614ZM67.949 40.247c1.013 0 1.834-.723 1.834-1.614 0-.892-.821-1.614-1.834-1.614-1.014 0-1.835.722-1.835 1.614 0 .891.821 1.614 1.835 1.614ZM61.331 29.81c1.013 0 1.835-.722 1.835-1.614 0-.891-.822-1.614-1.835-1.614s-1.835.723-1.835 1.614c0 .892.822 1.614 1.835 1.614ZM56.385 31.384c1.013 0 1.835-.723 1.835-1.614 0-.892-.822-1.615-1.835-1.615s-1.835.723-1.835 1.615c0 .891.822 1.614 1.835 1.614ZM66.501 31.384c1.014 0 1.835-.723 1.835-1.614 0-.892-.821-1.615-1.835-1.615-1.013 0-1.834.723-1.834 1.615 0 .891.821 1.614 1.834 1.614ZM54.026 35.442c1.013 0 1.834-.722 1.834-1.614 0-.892-.821-1.614-1.834-1.614-1.014 0-1.835.723-1.835 1.614 0 .892.822 1.614 1.835 1.614ZM69.071 35.442c1.013 0 1.835-.722 1.835-1.614 0-.892-.822-1.614-1.835-1.614s-1.835.723-1.835 1.614c0 .892.822 1.614 1.835 1.614Z"/></g></g></g></g></g></g></g><defs><clipPath id="a"><path fill="#fff" d="M.346.523H108.2V95.29H.346z"/></clipPath><clipPath id="b"><path fill="#fff" d="M.346 8H108.2v87.29H.346z"/></clipPath><clipPath id="c"><path fill="#fff" d="M.346 8H108.2v87.29H.346z"/></clipPath><clipPath id="d"><path fill="#fff" d="M.346 8H108.2v87.29H.346z"/></clipPath><clipPath id="e"><path fill="#fff" d="M.346 8H108.2v87.29H.346z"/></clipPath><clipPath id="f"><path fill="#fff" d="M.346 8H108.2v87.29H.346z"/></clipPath><clipPath id="g"><path fill="#fff" d="M.346 8H108.2v87.29H.346z"/></clipPath></defs></svg>