<svg xmlns="http://www.w3.org/2000/svg" width="96" height="95" fill="none"><path fill="#E7742E" d="M34.3 31.661a1.126 1.126 0 0 1-.206-1.22l2.59-5.906a15.816 15.816 0 0 1-2.546-8.624C34.138 7.141 41.288 0 50.07 0 58.851 0 66 7.14 66 15.911s-7.149 15.912-15.93 15.912a15.88 15.88 0 0 1-8.077-2.204l-6.487 2.321c-.117.044-.25.059-.382.059a1.1 1.1 0 0 1-.824-.338Zm2.089-15.735c0 2.836.868 5.554 2.5 7.86.25.353.265.808.074 1.175l-1.765 3.997 4.457-1.602a1.13 1.13 0 0 1 1.06.074 13.68 13.68 0 0 0 7.354 2.145c7.546 0 13.68-6.127 13.68-13.664S57.615 2.248 50.07 2.248c-7.546.015-13.68 6.141-13.68 13.678ZM16.727 37a8 8 0 1 0 0-16 8 8 0 0 0 0 16ZM28.286 39H4.714a4.74 4.74 0 0 0-3.333 1.367A4.643 4.643 0 0 0 0 43.667V67h7.071V48.333H8.25V95h7.66V68.167h1.18V95h7.66V48.333h1.179V67H33V43.667a4.643 4.643 0 0 0-1.38-3.3A4.74 4.74 0 0 0 28.285 39ZM79.727 37a8 8 0 1 0 0-16 8 8 0 0 0 0 16ZM91.286 39H67.714a4.74 4.74 0 0 0-3.333 1.367 4.643 4.643 0 0 0-1.381 3.3V67h7.071V48.333h1.179V95h7.66V68.167h1.18V95h7.66V48.333h1.179V67H96V43.667a4.643 4.643 0 0 0-1.38-3.3A4.74 4.74 0 0 0 91.285 39Z"/></svg>