<svg xmlns="http://www.w3.org/2000/svg" width="134" height="78" fill="none"><path fill="#E7742E" d="M28.902 29.004c-5.954 0-8.81 1.026-9.225 6.281a42.326 42.326 0 0 0-.109 3.717c0 1.198.021 2.457.11 3.717.414 5.255 3.27 6.281 9.203 6.281 5.955 0 8.832-1.026 9.225-6.281.11-1.26.13-2.523.13-3.717s-.02-2.457-.13-3.717c-.393-5.255-3.27-6.28-9.204-6.28Zm21.155 0c-2.29 0-4.58.213-5.498.66-1.809.854-3.052 2.072-3.052 5.576 0 2.051.565 3.59 1.637 4.357 1.57 1.153 3.099 1.26 7.307 1.473 1.721.086 2.638.426 2.638 1.858 0 1.818-1.637 1.818-3.161 1.818-1.55 0-2.027-.128-2.55-.534-.482-.34-.591-.96-.591-1.903h-5.322c0 2.67.067 4.849 2.638 5.94 2.29.985 9.313.985 11.427.066 1.835-.792 3.141-1.838 3.141-5.428 0-2.478-.502-4.016-2.466-5.148-1.374-.813-5.277-.92-7.24-1.047-1.441-.086-1.985-.599-1.985-1.858 0-1.625 1.59-1.666 2.964-1.666 1.114 0 1.897.086 2.442.554.217.213.481.554.502 1.686h5.276c0-2.223-.088-4.636-2.529-5.748-.98-.426-3.291-.66-5.582-.66l.004.004Zm12.324.34V48.66h5.54V41.2h6.457v7.459h5.561V29.345h-5.56v7.052H67.92v-7.052h-5.54Zm22.441 0V48.66h5.607V29.345h-5.607Zm10.578 0V48.66h10.535c4.841 0 6.478-2.052 6.478-5.215 0-2.178-.523-4.123-3.597-4.874 2.488-.64 3.208-2.092 3.208-4.188 0-4.23-2.705-5.043-6.587-5.043l-10.037.005Zm24.404 0L113.85 48.66h5.778l1.047-3.59h6.478l1.068 3.59H134l-5.976-19.315h-8.22Zm-119.8 0v4.83h5.888V48.66h5.887V34.172h5.888v-4.808H0l.004-.02Zm28.898 4.165c2.333 0 3.534.365 3.685 3.335.021.472.042 1.091.042 2.158s-.02 1.686-.042 2.158c-.15 2.97-1.352 3.335-3.685 3.335-2.332 0-3.555-.365-3.685-3.335a23.184 23.184 0 0 1-.042-2.158c0-1.067 0-1.686.042-2.158.13-2.97 1.353-3.335 3.685-3.335Zm72.038.258h3.861c1.005 0 1.637.472 1.637 1.604 0 .96-.632 1.539-1.637 1.539h-3.861v-3.143Zm22.968.34h.021l1.985 6.688h-3.97l1.964-6.687Zm-22.947 6.606h3.84c1.57 0 1.876.685 1.876 1.772s-.612 1.752-1.876 1.752h-3.861v-3.524h.021Z"/></svg>