<svg xmlns="http://www.w3.org/2000/svg" width="134" height="78" fill="none"><path fill="#E7742E" fill-rule="evenodd" d="M87.435 25C85.297 27.161 84 29.041 84 34.516v16.876h4.684v-17.11c0-2.687.193-3.98 1.543-5.385L87.435 25ZM68.63 45.921c2.598 3.937 5.868 5.392 9.453 5.392v-4.297c-2.522 0-4.269-1.4-6.096-4.254a433.68 433.68 0 0 1-2.228-3.518 441.504 441.504 0 0 0-4.626-7.239c-2.777-4.255-6.155-6.174-10.125-6.174-3.978 0-7.352 1.92-10.123 6.174a463.068 463.068 0 0 0-4.734 7.419c-.759 1.206-1.46 2.322-2.11 3.338-1.84 2.854-3.593 4.213-6.112 4.213-2.516 0-4.268-1.359-6.097-4.213a661.079 661.079 0 0 0-3.53-5.39c-.955-1.448-2-3.031-3.17-4.82-2.778-4.253-6.156-6.175-10.132-6.175v4.377c2.756 0 4.357 1.376 6.074 3.944.998 1.5 2.413 3.652 3.927 5.953 1.147 1.743 2.351 3.573 3.472 5.27 2.601 3.937 5.865 5.392 9.456 5.392 3.602 0 6.86-1.455 9.46-5.392 1.328-2.015 2.816-4.362 4.188-6.526 1.307-2.063 2.51-3.96 3.371-5.25 1.704-2.57 3.312-3.893 6.06-3.893 2.753 0 4.354 1.324 6.06 3.893.848 1.271 2.028 3.133 3.314 5.16v.001c1.389 2.19 2.9 4.572 4.248 6.615Zm-9.894-2.829c0 1.962-1.57 3.557-3.518 3.557-1.946 0-3.521-1.595-3.521-3.557 0-1.963 1.575-3.558 3.52-3.558 1.949 0 3.52 1.595 3.52 3.558Zm61.597-4.521c0 4.953-3.862 8.97-8.622 8.97-4.767 0-8.624-4.017-8.624-8.97 0-4.958 3.857-8.974 8.624-8.974 4.76 0 8.622 4.016 8.622 8.974Zm-8.622-13.431c-7.34 0-13.288 6.012-13.288 13.43 0 7.413 5.948 13.43 13.288 13.43C119.05 52 125 45.983 125 38.57c0-7.418-5.95-13.43-13.289-13.43Z" clip-rule="evenodd"/></svg>