<svg version="1.1" id="Layer_1" xmlns="http://www.w3.org/2000/svg" xmlns:xlink="http://www.w3.org/1999/xlink" x="0px" y="0px"
	 width="100%" viewBox="0 0 5001 3334" enable-background="new 0 0 5001 3334" xml:space="preserve">
<path fill="#FEF9F3" opacity="1.000000" stroke="none" 
	d="
M4284.000000,3336.000000 
	C3345.271484,3336.000000 2406.542969,3336.000000 1466.566040,3335.399902 
	C1416.987183,3310.105957 1368.658325,3285.409180 1320.325806,3260.719238 
	C1223.057617,3211.030762 1125.795044,3161.331299 1028.515503,3111.665039 
	C960.007141,3076.688477 891.476685,3041.755127 822.952942,3006.808594 
	C721.499512,2955.068604 620.040833,2903.339111 518.588928,2851.596191 
	C453.330750,2818.312500 388.084747,2785.005127 322.826385,2751.721680 
	C219.298386,2698.919678 115.771584,2646.115479 12.201600,2593.395996 
	C9.043233,2591.788330 5.411184,2591.111084 1.999986,2590.000000 
	C2.000000,2584.597168 2.000000,2579.194092 2.639576,2572.688477 
	C38.598980,2540.270752 73.946053,2508.986328 109.231529,2477.632324 
	C151.024460,2440.496582 192.777267,2403.315918 234.523468,2366.127441 
	C279.726074,2325.860107 324.886108,2285.545410 370.092499,2245.282471 
	C410.100220,2209.649658 450.160156,2174.075684 490.171234,2138.446777 
	C533.887573,2099.518311 577.564087,2060.545166 621.276550,2021.612183 
	C663.025940,1984.427490 704.806519,1947.277832 746.559998,1910.097656 
	C789.779175,1871.612427 832.979004,1833.105713 876.193054,1794.614502 
	C918.440857,1756.983887 960.700867,1719.366943 1002.946655,1681.734009 
	C1046.905396,1642.575073 1090.844360,1603.394165 1134.808472,1564.241333 
	C1176.062012,1527.502319 1217.348389,1490.800537 1258.599487,1454.058960 
	C1308.035889,1410.026978 1357.489746,1366.014526 1406.860596,1321.909180 
	C1440.867798,1291.528809 1474.656616,1260.903687 1508.707886,1230.573120 
	C1543.002197,1200.026245 1577.517944,1169.728027 1611.903076,1139.282837 
	C1633.054932,1120.554810 1654.205688,1101.824585 1675.239868,1082.964844 
	C1689.601685,1070.087769 1703.761353,1056.985352 1718.556885,1043.849243 
	C1720.057373,1043.128174 1721.012329,1042.541504 1722.788452,1042.025391 
	C1752.541870,1035.843628 1781.499390,1029.706055 1810.401367,1023.317139 
	C1900.373779,1003.428345 1990.328369,983.459839 2080.283447,963.492920 
	C2181.605469,941.002991 2282.911621,918.443115 2384.240723,895.984680 
	C2469.653320,877.053894 2555.102295,858.285400 2640.510010,839.332092 
	C2710.657227,823.765320 2780.747803,807.944641 2850.898926,792.394592 
	C2946.379883,771.229797 3041.896729,750.226196 3137.393555,729.132874 
	C3212.100098,712.631714 3286.806396,696.129639 3361.500732,679.573486 
	C3475.494873,654.306396 3589.478271,628.989685 3703.467529,603.699341 
	C3790.166260,584.463745 3876.868896,565.247009 3963.565430,546.001709 
	C4014.224854,534.755981 4064.867920,523.437683 4115.531738,512.210815 
	C4193.149902,495.010803 4270.776855,477.849396 4348.405273,460.694763 
	C4401.676758,448.922577 4454.985840,437.318573 4508.189941,425.248840 
	C4513.784668,423.979553 4516.836426,425.282196 4520.091797,429.345337 
	C4528.631348,440.003632 4537.403320,450.475830 4546.133301,460.980286 
	C4583.818359,506.326843 4621.544434,551.638916 4659.210938,597.001099 
	C4696.665527,642.107727 4734.047852,687.274292 4771.495117,732.386841 
	C4808.730469,777.244873 4845.994141,822.079529 4883.269531,866.904602 
	C4923.498535,915.281677 4963.755371,963.635864 5004.000000,1012.000000 
	C5004.000000,1546.061890 5004.000000,2080.123779 5003.358398,2615.288086 
	C4999.920410,2619.249023 4997.151367,2622.135010 4994.323730,2624.962646 
	C4760.009766,2859.285889 4525.689941,3093.603516 4291.387207,3327.938232 
	C4288.812500,3330.513428 4286.457520,3333.307861 4284.000000,3336.000000 
z"/>
<path fill="#FE9C3B" opacity="1.000000" stroke="none" 
	d="
M1718.011353,1043.983643 
	C1703.761353,1056.985352 1689.601685,1070.087769 1675.239868,1082.964844 
	C1654.205688,1101.824585 1633.054932,1120.554810 1611.903076,1139.282837 
	C1577.517944,1169.728027 1543.002197,1200.026245 1508.707886,1230.573120 
	C1474.656616,1260.903687 1440.867798,1291.528809 1406.860596,1321.909180 
	C1357.489746,1366.014526 1308.035889,1410.026978 1258.599487,1454.058960 
	C1217.348389,1490.800537 1176.062012,1527.502319 1134.808472,1564.241333 
	C1090.844360,1603.394165 1046.905396,1642.575073 1002.946655,1681.734009 
	C960.700867,1719.366943 918.440857,1756.983887 876.193054,1794.614502 
	C832.979004,1833.105713 789.779175,1871.612427 746.559998,1910.097656 
	C704.806519,1947.277832 663.025940,1984.427490 621.276550,2021.612183 
	C577.564087,2060.545166 533.887573,2099.518311 490.171234,2138.446777 
	C450.160156,2174.075684 410.100220,2209.649658 370.092499,2245.282471 
	C324.886108,2285.545410 279.726074,2325.860107 234.523468,2366.127441 
	C192.777267,2403.315918 151.024460,2440.496582 109.231529,2477.632324 
	C73.946053,2508.986328 38.598980,2540.270752 2.639576,2571.792969 
	C2.000000,1715.333374 2.000000,858.666687 2.000000,2.000000 
	C27.475502,2.000000 52.800434,2.000000 79.165070,2.680648 
	C87.110283,8.381286 93.790924,13.751688 100.964035,18.354664 
	C121.370773,31.449654 142.025482,44.157417 162.495102,57.155418 
	C189.121887,74.063156 215.610321,91.189064 242.257950,108.063728 
	C270.882843,126.190536 299.673462,144.055710 328.297546,162.183762 
	C351.872437,177.114059 375.240417,192.371201 398.822968,207.289261 
	C442.617035,234.992935 486.527893,262.511932 530.339111,290.188629 
	C570.218140,315.381317 610.022888,340.691711 649.872559,365.930847 
	C690.003113,391.347900 730.128723,416.772766 770.293640,442.135376 
	C806.244507,464.836975 842.285400,487.396240 878.208801,510.141083 
	C896.734558,521.870667 915.006042,534.002014 933.541626,545.715759 
	C974.256104,571.445618 1015.101562,596.968262 1055.820557,622.691101 
	C1075.200928,634.934021 1094.341187,647.557068 1113.718628,659.804688 
	C1154.432129,685.537903 1195.270752,711.072998 1235.979492,736.813599 
	C1262.918945,753.847839 1289.684814,771.156189 1316.598145,788.232117 
	C1337.072266,801.222473 1357.694702,813.978882 1378.180664,826.950623 
	C1402.864624,842.580566 1427.437012,858.386536 1452.125854,874.008423 
	C1475.986938,889.106506 1499.955322,904.034607 1523.839600,919.096130 
	C1561.489258,942.838318 1599.108521,966.629028 1636.739868,990.400208 
	C1662.015015,1006.365967 1687.313843,1022.294800 1712.519531,1038.369507 
	C1714.669312,1039.740479 1716.195557,1042.089111 1718.011353,1043.983643 
z"/>
<path fill="#FEA958" opacity="1.000000" stroke="none" 
	d="
M5004.000000,1011.062683 
	C4963.755371,963.635864 4923.498535,915.281677 4883.269531,866.904602 
	C4845.994141,822.079529 4808.730469,777.244873 4771.495117,732.386841 
	C4734.047852,687.274292 4696.665527,642.107727 4659.210938,597.001099 
	C4621.544434,551.638916 4583.818359,506.326843 4546.133301,460.980286 
	C4537.403320,450.475830 4528.631348,440.003632 4520.091797,429.345337 
	C4516.836426,425.282196 4513.784668,423.979553 4508.189941,425.248840 
	C4454.985840,437.318573 4401.676758,448.922577 4348.405273,460.694763 
	C4270.776855,477.849396 4193.149902,495.010803 4115.531738,512.210815 
	C4064.867920,523.437683 4014.224854,534.755981 3963.565430,546.001709 
	C3876.868896,565.247009 3790.166260,584.463745 3703.467529,603.699341 
	C3589.478271,628.989685 3475.494873,654.306396 3361.500732,679.573486 
	C3286.806396,696.129639 3212.100098,712.631714 3137.393555,729.132874 
	C3041.896729,750.226196 2946.379883,771.229797 2850.898926,792.394592 
	C2780.747803,807.944641 2710.657227,823.765320 2640.510010,839.332092 
	C2555.102295,858.285400 2469.653320,877.053894 2384.240723,895.984680 
	C2282.911621,918.443115 2181.605469,941.002991 2080.283447,963.492920 
	C1990.328369,983.459839 1900.373779,1003.428345 1810.401367,1023.317139 
	C1781.499390,1029.706055 1752.541870,1035.843628 1722.794922,1041.274170 
	C1723.888794,1035.879395 1725.410645,1031.095459 1727.770264,1026.768433 
	C1741.300781,1001.956909 1755.127197,977.306763 1768.667358,952.500305 
	C1786.036743,920.678284 1803.214966,888.751892 1820.504272,856.886047 
	C1837.158081,826.191284 1853.877441,795.532043 1870.515259,764.828613 
	C1892.701050,723.887451 1914.828369,682.914551 1936.995239,641.963135 
	C1954.094360,610.374207 1971.201294,578.789551 1988.330444,547.216919 
	C2005.142700,516.228882 2022.002563,485.266571 2038.813599,454.277893 
	C2056.101074,422.410980 2073.355225,390.526215 2090.622803,358.648499 
	C2108.048828,326.478302 2125.455811,294.297760 2142.903320,262.139282 
	C2159.397949,231.737366 2176.014160,201.401260 2192.431396,170.957947 
	C2212.642822,133.479156 2232.659912,95.895782 2252.858887,58.410187 
	C2258.218994,48.463070 2264.201660,38.846405 2269.411377,28.824802 
	C2273.963623,20.068232 2277.830566,10.955458 2282.000000,2.000028 
	C3189.120850,2.000000 4096.241699,2.000000 5004.000000,2.000000 
	C5004.000000,338.041534 5004.000000,674.083435 5004.000000,1011.062683 
z"/>
<path fill="#EE9338" opacity="1.000000" stroke="none" 
	d="
M2281.062744,2.000028 
	C2277.830566,10.955458 2273.963623,20.068232 2269.411377,28.824802 
	C2264.201660,38.846405 2258.218994,48.463070 2252.858887,58.410187 
	C2232.659912,95.895782 2212.642822,133.479156 2192.431396,170.957947 
	C2176.014160,201.401260 2159.397949,231.737366 2142.903320,262.139282 
	C2125.455811,294.297760 2108.048828,326.478302 2090.622803,358.648499 
	C2073.355225,390.526215 2056.101074,422.410980 2038.813599,454.277893 
	C2022.002563,485.266571 2005.142700,516.228882 1988.330444,547.216919 
	C1971.201294,578.789551 1954.094360,610.374207 1936.995239,641.963135 
	C1914.828369,682.914551 1892.701050,723.887451 1870.515259,764.828613 
	C1853.877441,795.532043 1837.158081,826.191284 1820.504272,856.886047 
	C1803.214966,888.751892 1786.036743,920.678284 1768.667358,952.500305 
	C1755.127197,977.306763 1741.300781,1001.956909 1727.770264,1026.768433 
	C1725.410645,1031.095459 1723.888794,1035.879395 1721.973633,1041.203613 
	C1721.012329,1042.541504 1720.057373,1043.128174 1718.556885,1043.849243 
	C1716.195557,1042.089111 1714.669312,1039.740479 1712.519531,1038.369507 
	C1687.313843,1022.294800 1662.015015,1006.365967 1636.739868,990.400208 
	C1599.108521,966.629028 1561.489258,942.838318 1523.839600,919.096130 
	C1499.955322,904.034607 1475.986938,889.106506 1452.125854,874.008423 
	C1427.437012,858.386536 1402.864624,842.580566 1378.180664,826.950623 
	C1357.694702,813.978882 1337.072266,801.222473 1316.598145,788.232117 
	C1289.684814,771.156189 1262.918945,753.847839 1235.979492,736.813599 
	C1195.270752,711.072998 1154.432129,685.537903 1113.718628,659.804688 
	C1094.341187,647.557068 1075.200928,634.934021 1055.820557,622.691101 
	C1015.101562,596.968262 974.256104,571.445618 933.541626,545.715759 
	C915.006042,534.002014 896.734558,521.870667 878.208801,510.141083 
	C842.285400,487.396240 806.244507,464.836975 770.293640,442.135376 
	C730.128723,416.772766 690.003113,391.347900 649.872559,365.930847 
	C610.022888,340.691711 570.218140,315.381317 530.339111,290.188629 
	C486.527893,262.511932 442.617035,234.992935 398.822968,207.289261 
	C375.240417,192.371201 351.872437,177.114059 328.297546,162.183762 
	C299.673462,144.055710 270.882843,126.190536 242.257950,108.063728 
	C215.610321,91.189064 189.121887,74.063156 162.495102,57.155418 
	C142.025482,44.157417 121.370773,31.449654 100.964035,18.354664 
	C93.790924,13.751688 87.110283,8.381286 80.102386,2.680648 
	C813.375183,2.000000 1546.750366,2.000000 2281.062744,2.000028 
z"/>
<path fill="#EFB047" opacity="1.000000" stroke="none" 
	d="
M1.999986,2590.937256 
	C5.411184,2591.111084 9.043233,2591.788330 12.201600,2593.395996 
	C115.771584,2646.115479 219.298386,2698.919678 322.826385,2751.721680 
	C388.084747,2785.005127 453.330750,2818.312500 518.588928,2851.596191 
	C620.040833,2903.339111 721.499512,2955.068604 822.952942,3006.808594 
	C891.476685,3041.755127 960.007141,3076.688477 1028.515503,3111.665039 
	C1125.795044,3161.331299 1223.057617,3211.030762 1320.325806,3260.719238 
	C1368.658325,3285.409180 1416.987183,3310.105957 1465.658813,3335.399902 
	C978.193176,3336.000000 490.386383,3336.000000 2.000000,3336.000000 
	C2.000000,3087.958496 2.000000,2839.916504 1.999986,2590.937256 
z"/>
<path fill="#FE9C3B" opacity="1.000000" stroke="none" 
	d="
M4284.937500,3336.000000 
	C4286.457520,3333.307861 4288.812500,3330.513428 4291.387207,3327.938232 
	C4525.689941,3093.603516 4760.009766,2859.285889 4994.323730,2624.962646 
	C4997.151367,2622.135010 4999.920410,2619.249023 5003.358398,2616.195312 
	C5004.000000,2855.854004 5004.000000,3095.708252 5004.000000,3336.000000 
	C4764.625000,3336.000000 4525.250000,3336.000000 4284.937500,3336.000000 
z"/>
</svg>