<svg xmlns="http://www.w3.org/2000/svg" width="92" height="80" fill="none"><path fill="#E7742E" d="M87.794 34.38H77.622v-7.255c0-3.895-3.181-7.076-7.117-7.076H12.868c-.737 0-1.348.608-1.348 1.34 0 .733.611 1.34 1.348 1.34h57.62c2.425 0 4.42 1.966 4.42 4.396v7.255H69.05c-6.308 0-11.43 5.093-11.43 11.365s5.122 11.365 11.43 11.365h14.504v7.255c0 7.165-5.859 12.99-13.066 12.99H5.661a2.96 2.96 0 0 1-2.965-2.948v-2.948h67.81c3.917 0 7.116-3.163 7.116-7.077v-2.859c0-.732-.611-1.34-1.348-1.34-.737 0-1.348.608-1.348 1.34v2.86c0 2.412-1.977 4.395-4.42 4.395H2.695V22.73h4.421c.737 0 1.348-.607 1.348-1.34 0-.732-.611-1.34-1.348-1.34H2.696v-2.948a2.96 2.96 0 0 1 2.965-2.949h64.826c7.207 0 13.066 5.826 13.066 12.991v2.86c0 .732.611 1.34 1.348 1.34.737 0 1.348-.608 1.348-1.34v-2.86c0-4.86-2.247-9.22-5.77-12.097V1.34c0-.732-.61-1.34-1.347-1.34H7.117C6.38 0 5.769.608 5.769 1.34v10.114h-.09C2.552 11.454 0 13.974 0 17.083V74.37C0 77.481 2.552 80 5.661 80h64.826c8.68 0 15.762-7.023 15.762-15.671v-7.255h1.527c2.337 0 4.224-1.894 4.224-4.2V38.58c.018-2.323-1.887-4.199-4.206-4.199Zm-9.992-31.7v10.561c-.97-.5-1.995-.911-3.073-1.215V7.058c0-.732-.611-1.34-1.348-1.34H8.465V2.68h69.337ZM8.465 8.398h63.568v3.128a14.57 14.57 0 0 0-1.528-.072H8.465V8.398Zm80.857 44.495c0 .84-.683 1.518-1.528 1.518H69.067c-4.816 0-8.734-3.895-8.734-8.684s3.918-8.684 8.734-8.684h18.727c.845 0 1.528.679 1.528 1.519v14.33Z"/><path fill="#E7742E" d="M69.067 40.098c-3.127 0-5.661 2.538-5.661 5.63 0 3.09 2.552 5.628 5.661 5.628 3.11 0 5.662-2.538 5.662-5.629 0-3.091-2.535-5.629-5.662-5.629Zm0 8.595a2.96 2.96 0 0 1-2.965-2.948 2.96 2.96 0 0 1 2.965-2.948 2.96 2.96 0 0 1 2.966 2.948 2.96 2.96 0 0 1-2.966 2.948Z"/></svg>