<svg xmlns="http://www.w3.org/2000/svg" width="134" height="78" fill="none"><path fill="#E7742E" fill-rule="evenodd" d="M35.581 73h62.837A2.581 2.581 0 0 0 101 70.418V7.581A2.58 2.58 0 0 0 98.418 5H35.581A2.58 2.58 0 0 0 33 7.58v62.838A2.581 2.581 0 0 0 35.581 73Zm45.39-46.611h5.35c.227 0 .415.182.415.406v24.41a.412.412 0 0 1-.415.404h-5.35a.41.41 0 0 1-.414-.405V26.795a.41.41 0 0 1 .415-.406Zm-12.916-.004H47.677a.41.41 0 0 0-.413.406V51.2a.41.41 0 0 0 .413.405h5.351a.413.413 0 0 0 .417-.405V32.043a.41.41 0 0 1 .413-.405h11.526c3.242 0 4.162 2.483 4.162 4.084V51.2a.41.41 0 0 0 .415.405h5.348a.411.411 0 0 0 .414-.405V33.884c0-1.428-.172-3.482-2.014-5.29-1.929-1.887-3.688-2.21-5.654-2.21Zm-9.365 9.724h5.618a.41.41 0 0 1 .413.406v14.69a.41.41 0 0 1-.413.404H58.69a.412.412 0 0 1-.417-.404v-14.69c0-.223.188-.406.417-.406Z" clip-rule="evenodd"/></svg>