<svg width="50" height="68" viewBox="0 0 50 68" fill="none" xmlns="http://www.w3.org/2000/svg">
<path d="M2.46275 68V63.104L30.3988 35.744C32.9588 33.248 34.8788 31.072 36.1588 29.216C37.4388 27.296 38.3028 25.504 38.7508 23.84C39.1988 22.176 39.4228 20.608 39.4228 19.136C39.4228 15.232 38.0788 12.16 35.3908 9.92C32.7668 7.68 28.8628 6.56 23.6788 6.56C19.7108 6.56 16.1908 7.168 13.1188 8.384C10.1108 9.59999 7.51875 11.488 5.34275 14.048L0.44675 9.824C3.07075 6.752 6.43075 4.384 10.5268 2.72C14.6228 1.056 19.1988 0.223997 24.2548 0.223997C28.7988 0.223997 32.7348 0.959997 36.0628 2.432C39.3908 3.84 41.9508 5.92 43.7428 8.672C45.5988 11.424 46.5268 14.656 46.5268 18.368C46.5268 20.544 46.2068 22.688 45.5668 24.8C44.9908 26.912 43.9028 29.152 42.3028 31.52C40.7668 33.824 38.4948 36.448 35.4868 39.392L9.85475 64.544L7.93475 61.856H49.5988V68H2.46275Z" fill="#E7742E"/>
</svg>
