<svg width="50" height="69" viewBox="0 0 50 69" fill="none" xmlns="http://www.w3.org/2000/svg">
<path d="M24.9623 68.576C20.0983 68.576 15.4903 67.808 11.1383 66.272C6.85025 64.672 3.39425 62.56 0.77025 59.936L4.13025 54.464C6.30625 56.704 9.21825 58.56 12.8663 60.032C16.5783 61.504 20.6103 62.24 24.9623 62.24C30.5303 62.24 34.7863 61.024 37.7303 58.592C40.7383 56.16 42.2423 52.896 42.2423 48.8C42.2423 44.704 40.7703 41.44 37.8263 39.008C34.9463 36.576 30.3703 35.36 24.0983 35.36H19.2983V30.272L40.0343 4.256L40.9943 6.944H3.55425V0.799995H46.7543V5.696L26.0183 31.712L22.6583 29.504H25.2502C33.3143 29.504 39.3303 31.296 43.2983 34.88C47.3303 38.464 49.3463 43.072 49.3463 48.704C49.3463 52.48 48.4503 55.872 46.6583 58.88C44.8663 61.888 42.1463 64.256 38.4983 65.984C34.9143 67.712 30.4023 68.576 24.9623 68.576Z" fill="#E7742E"/>
</svg>
