<svg xmlns="http://www.w3.org/2000/svg" version="1.1" xmlns:xlink="http://www.w3.org/1999/xlink" xmlns:svgjs="http://svgjs.dev/svgjs" width="128" height="128" viewBox="0 0 128 128"><g transform="matrix(0.8046875,0,0,0.8046875,12.760752631578946,12.760752631578946)"><svg viewBox="0 0 95 95" data-background-color="#ffffff" preserveAspectRatio="xMidYMid meet" height="128" width="128" xmlns="http://www.w3.org/2000/svg" xmlns:xlink="http://www.w3.org/1999/xlink"><g id="tight-bounds" transform="matrix(1,0,0,1,-0.24049999999999727,-0.24049999999999727)"><svg viewBox="0 0 95.481 95.481" height="95.481" width="95.481"><g><svg viewBox="0 0 95.481 95.481" height="95.481" width="95.481"><g><svg viewBox="0 0 95.481 95.481" height="95.481" width="95.481"><g id="textblocktransform"><svg viewBox="0 0 95.481 95.481" height="95.481" width="95.481" id="textblock"><g><svg viewBox="0 0 95.481 95.481" height="95.481" width="95.481"><g><svg viewBox="0 0 95.481 95.481" height="95.481" width="95.481"><g><svg xmlns="http://www.w3.org/2000/svg" xmlns:xlink="http://www.w3.org/1999/xlink" version="1.1" x="0" y="0" viewBox="8.4 8.4 83.19999999999999 83.19999999999999" enable-background="new 0 0 100 100" xml:space="preserve" height="95.481" width="95.481" class="icon-icon-0" data-fill-palette-color="accent" id="icon-0"><path d="M50 8.4C27 8.4 8.4 27 8.4 50 8.4 73 27 91.6 50 91.6 73 91.6 91.6 73 91.6 50 91.6 27 73 8.4 50 8.4zM75 75.1c-6.4 6.4-15.2 10.3-25 10.3-9.3 0-17.8-3.6-24.1-9.5-0.1-4.7 2-5.3 2.9-5.5 4.4-1.1 7.8-2.4 10.4-3.7 2.6 3.4 6.6 5.4 10.9 5.4 4.4 0 8.5-2.1 11.1-5.6 2.7 1.4 6.2 2.7 10.9 3.9C74.4 71 75.1 72.2 75 75.1zM50.2 54.9c0 0-0.1 0-0.1 0-2.8 0-4.9-0.9-6.5-2.7-3.5-3.9-3.5-11.4-3.3-14 0-0.1 0-0.1 0-0.2 0.4-9.2 6.7-10.2 9.4-10.2 0.1 0 0.2 0 0.2 0 0.1 0 0.2 0 0.2 0 0 0 0.1 0 0.2 0 2.7 0 9 1 9.4 10.2 0 0.1 0 0.1 0 0.2 0.3 2.6 0.2 10.1-3.2 14C55.1 54 53 54.9 50.2 54.9zM56.1 63c-1.4 1.8-3.6 2.9-6 2.9-2.2 0-4.3-1-5.7-2.6 1-0.9 1.7-1.7 2.2-2.5 1 0.2 2.1 0.3 3.3 0.4 0.1 0 0.1 0 0.2 0 0 0 0.1 0 0.1 0 0 0 0.1 0 0.1 0 0.1 0 0.1 0 0.2 0 1.3 0 2.6-0.2 3.7-0.5C54.6 61.4 55.2 62.1 56.1 63zM79.9 68.9c-1.5-2.7-4-3.9-6.4-4.5-8.7-2.2-12.4-4.9-13.8-6.5 0.5-0.5 1.1-1 1.6-1.5 5.8-6.5 4.9-17.4 4.8-18.7-0.6-11.9-8.8-16.1-15.7-16.1-0.1 0-0.2 0-0.3 0-0.1 0-0.2 0-0.3 0-6.9 0-15.1 4.2-15.7 16.1-0.1 1.3-1 12.2 4.8 18.7 0.6 0.6 1.2 1.2 1.9 1.7-1.5 1.7-5.3 4.2-13.6 6.3-3.1 0.8-5.3 2.7-6.5 5.5-3.9-5.7-6.2-12.5-6.2-19.9 0-19.5 15.9-35.4 35.4-35.4 19.5 0 35.4 15.9 35.4 35.4C85.4 57 83.4 63.4 79.9 68.9z" fill="#ff851b" data-fill-palette-color="accent"></path></svg></g></svg></g></svg></g></svg></g></svg></g><g></g></svg></g><defs></defs></svg><rect width="95.481" height="95.481" fill="none" stroke="none" visibility="hidden"></rect></g></svg></g></svg>