<svg width="27" height="24" viewBox="0 0 27 24" fill="none" xmlns="http://www.w3.org/2000/svg">
<path d="M22.4322 13.2262L21.5956 14.0768L14.3544 21.4394C14.1388 21.6679 14.0182 21.9748 14.021 22.2948C14.0237 22.6162 14.1506 22.922 14.3717 23.1468C14.5925 23.3714 14.8895 23.4972 15.1982 23.5C15.5056 23.5027 15.8034 23.3831 16.0276 23.1644L26.1494 12.8729C26.1494 12.8729 26.1494 12.8729 26.1494 12.8728C26.373 12.6455 26.5 12.3354 26.5 12.0104C26.5 11.6853 26.373 11.3752 26.1494 11.1478L16.0244 0.853024C16.0243 0.853006 16.0243 0.852988 16.0243 0.85297C15.8009 0.62597 15.4999 0.5 15.1877 0.5C14.8756 0.5 14.5745 0.62595 14.3512 0.852916L22.4322 13.2262ZM22.4322 13.2262H21.2392M22.4322 13.2262H21.2392M21.2392 13.2262H1.68752C1.37528 13.2262 1.07411 13.1001 0.850744 12.873C0.627099 12.6456 0.5 12.3355 0.5 12.0104C0.5 11.6852 0.627099 11.3751 0.850744 11.1477C1.07411 10.9206 1.37528 10.7945 1.68752 10.7945H21.2392H22.4322M21.2392 13.2262L22.4322 10.7945M22.4322 10.7945L21.5956 9.94394M22.4322 10.7945L21.5956 9.94394M21.5956 9.94394L14.3512 2.57799M21.5956 9.94394L14.3512 2.57799M14.3512 2.57799C14.3511 2.57797 14.3511 2.57795 14.3511 2.57793M14.3512 2.57799L14.3511 2.57793M14.3511 2.57793C14.1276 2.35055 14.0005 2.04047 14.0005 1.71545M14.3511 2.57793L14.0005 1.71545M14.0005 1.71545C14.0005 1.39045 14.1276 1.0804 14.3511 0.853024L14.0005 1.71545Z" fill="#E7742E" stroke="black"/>
</svg>
