<svg width="92" height="92" viewBox="0 0 92 92" fill="none" xmlns="http://www.w3.org/2000/svg">
<g clip-path="url(#clip0_5942_2933)">
<path d="M47.0695 6.42812C46.383 6.15169 45.617 6.15169 44.9305 6.42812L10.6145 20.2196L24.4375 25.7721L59.823 11.553L47.0695 6.42812ZM67.5625 14.6672L32.177 28.8863L46 34.4387L81.3855 20.2196L67.5625 14.6672V14.6672ZM86.25 24.4894L48.875 39.5116V85.2829L86.25 70.2608V24.4952V24.4894ZM43.125 85.2887V39.5058L5.75 24.4894V70.2666L43.125 85.2887V85.2887ZM42.7972 1.06059C44.8533 0.234362 47.1467 0.234362 49.2028 1.06059L90.1945 17.5387C90.7275 17.7534 91.1842 18.1234 91.506 18.6012C91.8278 19.079 91.9999 19.6427 92 20.2196V70.2666C91.9993 71.4211 91.6543 72.5489 91.0097 73.5046C90.365 74.4603 89.4502 75.2 88.3833 75.6283L47.0695 92.2336C46.383 92.51 45.617 92.51 44.9305 92.2336L3.6225 75.6283C2.55444 75.2009 1.63842 74.4616 0.992692 73.5058C0.346965 72.5501 0.00118639 71.4217 0 70.2666L0 20.2196C0.00013363 19.6427 0.172177 19.079 0.493965 18.6012C0.815754 18.1234 1.27255 17.7534 1.8055 17.5387L42.7972 1.06059Z" fill="#E7742E"/>
<path d="M77.7999 42.9077C77.3945 42.6818 76.9486 42.538 76.4877 42.4848C76.0268 42.4316 75.5599 42.4699 75.1138 42.5976C74.6677 42.7252 74.2511 42.9397 73.8879 43.2288C73.5246 43.5179 73.2217 43.8759 72.9967 44.2823L66.44 56.1032L62.6875 52.3439C62.3617 52.006 61.972 51.7365 61.5411 51.551C61.1102 51.3656 60.6467 51.268 60.1778 51.2639C59.7089 51.2598 59.2438 51.3494 58.8098 51.5273C58.3757 51.7052 57.9814 51.9679 57.6498 52.3001C57.3182 52.6323 57.0559 53.0273 56.8784 53.4621C56.7008 53.897 56.6114 54.3629 56.6155 54.8327C56.6196 55.3024 56.717 55.7667 56.9021 56.1984C57.0872 56.6301 57.3562 57.0205 57.6936 57.3468L64.7571 64.4231C65.4246 65.0936 66.3252 65.4615 67.254 65.4615L67.7432 65.4262C68.2845 65.3503 68.8009 65.1496 69.2516 64.8399C69.7024 64.5301 70.0752 64.1198 70.3408 63.6412L79.1702 47.7196C79.3956 47.3135 79.539 46.8669 79.5921 46.4053C79.6452 45.9437 79.6071 45.4762 79.4798 45.0293C79.3526 44.5825 79.1387 44.1652 78.8505 43.8012C78.5622 43.4371 78.2052 43.1335 77.7999 42.9077V42.9077Z" fill="#E7742E"/>
</g>
<defs>
<clipPath id="clip0_5942_2933">
<rect width="92" height="92" fill="white"/>
</clipPath>
</defs>
</svg>
