<svg width="16" height="26" viewBox="0 0 16 26" fill="none" xmlns="http://www.w3.org/2000/svg">
<path d="M13 6.10352e-05C13.7956 6.10352e-05 14.5587 0.30823 15.1213 0.856774C15.6839 1.40532 16 2.1493 16 2.92506V23.0751C16 23.8508 15.6839 24.5948 15.1213 25.1433C14.5587 25.6919 13.7956 26.0001 13 26.0001H3C2.20435 26.0001 1.44129 25.6919 0.87868 25.1433C0.316071 24.5948 0 23.8508 0 23.0751V2.92506C0 2.1493 0.316071 1.40532 0.87868 0.856774C1.44129 0.30823 2.20435 6.10352e-05 3 6.10352e-05H13ZM13 1.95006H3C2.73478 1.95006 2.48043 2.05278 2.29289 2.23563C2.10536 2.41848 2 2.66647 2 2.92506V23.0751C2 23.6133 2.448 24.0501 3 24.0501H13C13.2652 24.0501 13.5196 23.9473 13.7071 23.7645C13.8946 23.5816 14 23.3336 14 23.0751V2.92506C14 2.66647 13.8946 2.41848 13.7071 2.23563C13.5196 2.05278 13.2652 1.95006 13 1.95006ZM9.66533 20.1501C9.93055 20.1497 10.185 20.2521 10.3728 20.4347C10.5606 20.6173 10.6663 20.8652 10.6667 21.1238C10.667 21.3823 10.562 21.6305 10.3747 21.8136C10.1874 21.9967 9.93322 22.0997 9.668 22.1001L6.33467 22.1053C6.06945 22.1056 5.81496 22.0032 5.62717 21.8206C5.43938 21.638 5.33369 21.3901 5.33333 21.1316C5.33298 20.873 5.438 20.6248 5.62528 20.4417C5.81257 20.2587 6.06678 20.1556 6.332 20.1553L9.66533 20.1501Z" fill="#E7742E"/>
</svg>
