<svg width="129" height="97" viewBox="0 0 129 97" fill="none" xmlns="http://www.w3.org/2000/svg">
<g clip-path="url(#clip0_5818_21587)">
<g clip-path="url(#clip1_5818_21587)">
<g clip-path="url(#clip2_5818_21587)">
<g clip-path="url(#clip3_5818_21587)">
<g clip-path="url(#clip4_5818_21587)">
<g clip-path="url(#clip5_5818_21587)">
<g clip-path="url(#clip6_5818_21587)">
<g clip-path="url(#clip7_5818_21587)">
<g clip-path="url(#clip8_5818_21587)">
<path d="M82.4832 10.1562H47.0462C41.9172 10.1562 37.7207 14.0185 37.7207 18.739V85.6847C37.7207 90.4052 41.9172 94.2675 47.0462 94.2675H82.4832C87.6122 94.2675 91.8087 90.4052 91.8087 85.6847V18.739C91.8087 14.0185 87.6122 10.1562 82.4832 10.1562ZM64.4849 89.7186C61.9671 89.7186 59.8222 87.8304 59.8222 85.4272C59.8222 83.1099 61.8738 81.1358 64.4849 81.1358C67.0961 81.1358 69.1477 83.024 69.1477 85.4272C69.1477 87.8304 67.0028 89.7186 64.4849 89.7186ZM84.3483 77.9602H45.1811V21.3139H84.3483V77.9602Z" fill="#E8772E"/>
</g>
</g>
</g>
</g>
</g>
</g>
</g>
</g>
</g>
<defs>
<clipPath id="clip0_5818_21587">
<rect width="128" height="97" fill="white" transform="translate(0.5)"/>
</clipPath>
<clipPath id="clip1_5818_21587">
<rect width="54.6432" height="83.6875" fill="white" transform="translate(37.4431 10.3681)"/>
</clipPath>
<clipPath id="clip2_5818_21587">
<rect width="54.088" height="84.1112" fill="white" transform="translate(37.7207 10.1562)"/>
</clipPath>
<clipPath id="clip3_5818_21587">
<rect width="54.088" height="84.1112" fill="white" transform="translate(37.7207 10.1562)"/>
</clipPath>
<clipPath id="clip4_5818_21587">
<rect width="54.088" height="84.1112" fill="white" transform="translate(37.7207 10.1562)"/>
</clipPath>
<clipPath id="clip5_5818_21587">
<rect width="54.088" height="84.1112" fill="white" transform="translate(37.7207 10.1562)"/>
</clipPath>
<clipPath id="clip6_5818_21587">
<rect width="54.088" height="84.1112" fill="white" transform="translate(37.7207 10.1562)"/>
</clipPath>
<clipPath id="clip7_5818_21587">
<rect width="54.088" height="84.1112" fill="white" transform="translate(37.7207 10.1562)"/>
</clipPath>
<clipPath id="clip8_5818_21587">
<rect width="54.088" height="84.1112" fill="white" transform="translate(37.7207 10.1562)"/>
</clipPath>
</defs>
</svg>
