<svg width="109" height="88" viewBox="0 0 109 88" fill="none" xmlns="http://www.w3.org/2000/svg">
<g clip-path="url(#clip0_5820_21711)">
<g clip-path="url(#clip1_5820_21711)">
<g clip-path="url(#clip2_5820_21711)">
<g clip-path="url(#clip3_5820_21711)">
<g clip-path="url(#clip4_5820_21711)">
<g clip-path="url(#clip5_5820_21711)">
<g clip-path="url(#clip6_5820_21711)">
<path d="M98.1904 8H10.3564C4.83733 8 0.345642 11.9521 0.345642 16.8091V68.561C0.345642 73.418 4.83733 77.3692 10.3564 77.3692H49.9172C51.7724 81.6108 62.2224 87.5105 62.2224 87.5105V95.2902H88.702V77.3692H98.1904C103.71 77.3692 108.2 73.418 108.2 68.561V16.8091C108.2 11.9511 103.71 8 98.1904 8ZM97.7167 68.1442H88.702V54.7108C88.702 51.0246 82.4911 51.0246 82.4911 54.7108V60.089C82.4911 60.6854 80.7417 60.6854 80.7417 60.089V50.827C80.7417 47.1418 74.4736 47.1418 74.4736 50.827V60.089C74.4736 60.6854 72.7242 60.6854 72.7242 60.089V47.4571C72.7242 43.7737 66.4561 43.7737 66.4561 47.4571V60.089C66.4561 60.6854 64.7067 60.6854 64.7067 60.089V34.4557C64.7067 30.7799 58.4387 30.7799 58.4387 34.4557V67.1424C58.4387 67.789 56.4626 67.789 56.4626 67.1424V54.8446C56.4626 50.3713 49.6312 50.5697 49.6312 54.8446V68.1451H10.8281V17.225H97.7145V68.1442H97.7167ZM102.962 44.5182C101.833 44.5182 100.918 43.713 100.918 42.7207C100.918 41.7274 101.833 40.9213 102.962 40.9213C104.092 40.9213 105.007 41.7265 105.007 42.7207C105.007 43.713 104.092 44.5182 102.962 44.5182Z" fill="#E8772E"/>
<path d="M55.2755 40.247C56.2887 40.247 57.1101 39.5243 57.1101 38.6328C57.1101 37.7413 56.2887 37.0185 55.2755 37.0185C54.2622 37.0185 53.4408 37.7413 53.4408 38.6328C53.4408 39.5243 54.2622 40.247 55.2755 40.247Z" fill="#E8772E"/>
<path d="M67.9487 40.247C68.9619 40.247 69.7833 39.5243 69.7833 38.6328C69.7833 37.7413 68.9619 37.0185 67.9487 37.0185C66.9354 37.0185 66.114 37.7413 66.114 38.6328C66.114 39.5243 66.9354 40.247 67.9487 40.247Z" fill="#E8772E"/>
<path d="M61.331 29.8104C62.3442 29.8104 63.1656 29.0877 63.1656 28.1962C63.1656 27.3047 62.3442 26.5819 61.331 26.5819C60.3177 26.5819 59.4963 27.3047 59.4963 28.1962C59.4963 29.0877 60.3177 29.8104 61.331 29.8104Z" fill="#E8772E"/>
<path d="M56.3849 31.3838C57.3982 31.3838 58.2196 30.6611 58.2196 29.7696C58.2196 28.878 57.3982 28.1553 56.3849 28.1553C55.3717 28.1553 54.5503 28.878 54.5503 29.7696C54.5503 30.6611 55.3717 31.3838 56.3849 31.3838Z" fill="#E8772E"/>
<path d="M66.5015 31.3838C67.5147 31.3838 68.3361 30.6611 68.3361 29.7696C68.3361 28.878 67.5147 28.1553 66.5015 28.1553C65.4882 28.1553 64.6668 28.878 64.6668 29.7696C64.6668 30.6611 65.4882 31.3838 66.5015 31.3838Z" fill="#E8772E"/>
<path d="M54.0257 35.4423C55.039 35.4423 55.8604 34.7196 55.8604 33.828C55.8604 32.9365 55.039 32.2138 54.0257 32.2138C53.0125 32.2138 52.1911 32.9365 52.1911 33.828C52.1911 34.7196 53.0125 35.4423 54.0257 35.4423Z" fill="#E8772E"/>
<path d="M69.0711 35.4423C70.0843 35.4423 70.9057 34.7196 70.9057 33.828C70.9057 32.9365 70.0843 32.2138 69.0711 32.2138C68.0578 32.2138 67.2364 32.9365 67.2364 33.828C67.2364 34.7196 68.0578 35.4423 69.0711 35.4423Z" fill="#E8772E"/>
</g>
</g>
</g>
</g>
</g>
</g>
</g>
<defs>
<clipPath id="clip0_5820_21711">
<rect width="107.855" height="94.7667" fill="white" transform="translate(0.345642 0.523438)"/>
</clipPath>
<clipPath id="clip1_5820_21711">
<rect width="107.855" height="87.2902" fill="white" transform="translate(0.345642 8)"/>
</clipPath>
<clipPath id="clip2_5820_21711">
<rect width="107.855" height="87.2902" fill="white" transform="translate(0.345642 8)"/>
</clipPath>
<clipPath id="clip3_5820_21711">
<rect width="107.855" height="87.2902" fill="white" transform="translate(0.345642 8)"/>
</clipPath>
<clipPath id="clip4_5820_21711">
<rect width="107.855" height="87.2902" fill="white" transform="translate(0.345642 8)"/>
</clipPath>
<clipPath id="clip5_5820_21711">
<rect width="107.855" height="87.2902" fill="white" transform="translate(0.345642 8)"/>
</clipPath>
<clipPath id="clip6_5820_21711">
<rect width="107.855" height="87.2902" fill="white" transform="translate(0.345642 8)"/>
</clipPath>
</defs>
</svg>
